<svg width="455" height="260" viewBox="0 0 3797 2169" fill="none" xmlns="http://www.w3.org/2000/svg">
<path d="M3675.01 1875.89L2421.2 1875.51L486.666 1874.97C486.666 1874.97 261.046 1514.24 466.95 1026.83C601.182 709.134 872.562 474.715 1338.44 618.058C1434.41 647.586 1584.51 628.728 1777.51 506.783C1787.32 500.583 1797.07 494.121 1806.73 487.395C1812.02 483.708 1817.3 479.959 1822.53 476.109C1888.25 427.9 1949.73 366.939 2000.38 291.917C2029.43 248.906 2063.71 210.869 2102.19 177.673C2126.18 156.985 2151.8 138.172 2178.83 121.199C2196.07 110.362 2213.88 100.289 2232.2 90.9493C2280.93 66.1017 2333.24 46.4893 2387.95 31.9398C2393.28 30.5273 2398.61 29.1651 2403.97 27.8397C2416.45 24.7647 2429.01 21.965 2441.7 19.4152C2450.4 17.6541 2459.15 16.0282 2467.93 14.5171C2478.68 12.6666 2489.53 10.9788 2500.41 9.50442H2500.43C2530.12 5.42966 2560.21 2.67807 2590.59 1.2174C2596.35 0.939938 2602.11 0.717512 2607.9 0.529481C2611.59 0.414828 2615.28 0.316281 2618.94 0.24061C2630.25 0.00213233 2641.58 -0.0576125 2652.92 0.0547472C2935.96 2.79036 3232.08 114.575 3412.41 315.804C3503.17 417.125 3564.63 541.108 3580.23 685.263C3585.97 738.487 3585.51 794.472 3577.96 853.08C3577.72 854.869 3577.5 856.632 3577.24 858.382C3576.88 861.218 3576.47 864.08 3576.03 866.93C3574.49 877.68 3572.68 888.531 3570.58 899.466C3566.03 923.729 3562.92 949.191 3553.22 973.544C3352.71 1477.61 3930.21 1432.86 3675.01 1875.89" fill="#DCEAFF"/>
<path d="M1874.7 1810.77H1820.83C1807.19 1810.77 1796.13 1800.25 1796.13 1787.28V1267.84C1796.13 1254.87 1807.19 1244.35 1820.83 1244.35H1874.7C1888.34 1244.35 1899.4 1254.87 1899.4 1267.84V1787.28C1899.4 1800.25 1888.34 1810.77 1874.7 1810.77Z" fill="#EBF3FA"/>
<path d="M2015.45 1810.77H1961.58C1947.94 1810.77 1936.88 1800.25 1936.88 1787.28V1267.84C1936.88 1254.87 1947.94 1244.35 1961.58 1244.35H2015.45C2029.09 1244.35 2040.15 1254.87 2040.15 1267.84V1787.28C2040.15 1800.25 2029.09 1810.77 2015.45 1810.77Z" fill="#EBF3FA"/>
<path d="M2156.19 1810.77H2102.34C2088.69 1810.77 2077.63 1800.25 2077.63 1787.28V1267.84C2077.63 1254.86 2088.69 1244.35 2102.34 1244.35H2156.19C2169.84 1244.35 2180.91 1254.86 2180.91 1267.84V1787.28C2180.91 1800.25 2169.84 1810.77 2156.19 1810.77Z" fill="#EBF3FA"/>
<path d="M2296.94 1810.77H2243.08C2229.42 1810.77 2218.37 1800.25 2218.37 1787.28V1267.84C2218.37 1254.87 2229.42 1244.35 2243.08 1244.35H2296.94C2310.57 1244.35 2321.63 1254.87 2321.63 1267.84V1787.28C2321.63 1800.25 2310.57 1810.77 2296.94 1810.77Z" fill="#EBF3FA"/>
<path d="M2437.68 1810.77H2383.81C2370.17 1810.77 2359.11 1800.25 2359.11 1787.28V1267.84C2359.11 1254.87 2370.17 1244.35 2383.81 1244.35H2437.68C2451.32 1244.35 2462.38 1254.87 2462.38 1267.84V1787.28C2462.38 1800.25 2451.32 1810.77 2437.68 1810.77Z" fill="#EBF3FA"/>
<path d="M2578.42 1810.77H2524.56C2510.92 1810.77 2499.87 1800.25 2499.87 1787.28V1267.84C2499.87 1254.87 2510.92 1244.35 2524.56 1244.35H2578.42C2592.06 1244.35 2603.13 1254.87 2603.13 1267.84V1787.28C2603.13 1800.25 2592.06 1810.77 2578.42 1810.77" fill="#EBF3FA"/>
<path d="M2618.93 0.243094V1132.7H1806.73V487.4C1812.01 483.717 1817.3 479.974 1822.52 476.123C1888.24 427.9 1949.72 366.948 2000.37 291.923C2029.42 248.91 2063.7 210.878 2102.18 177.674C2126.17 157.001 2151.78 138.176 2178.82 121.215C2196.06 110.366 2213.87 100.297 2232.2 90.9604C2280.91 66.1152 2333.23 46.4956 2387.94 31.9491C2393.27 30.5433 2398.61 29.1681 2403.96 27.8541C2416.44 24.7675 2429.02 21.9712 2441.7 19.4195C2450.39 17.6623 2459.13 16.0426 2467.92 14.5299C2478.68 12.681 2489.53 10.985 2500.41 9.51808H2500.42C2530.1 5.43832 2560.19 2.68795 2590.59 1.22107C2596.34 0.946033 2602.11 0.732113 2607.9 0.533473C2611.58 0.426513 2615.25 0.319494 2618.93 0.243094" fill="#EBF3FA"/>
<path d="M2618.93 0.252884C2615.27 0.314797 2611.57 0.423115 2607.9 0.531462V1114.56H1822.52V476.116C1817.3 479.97 1812.01 483.716 1806.73 487.4C1797.06 494.133 1787.32 500.587 1777.5 506.794V1160.34H2652.91V0.051546C2641.57 -0.0568017 2630.24 0.00523219 2618.93 0.252884Z" fill="#C2D2FF"/>
<path d="M2701.72 1162.65H1731.74V1144.17C1731.74 1130.95 1743.01 1120.22 1756.92 1120.22H2677.13C2690.72 1120.22 2701.72 1130.69 2701.72 1143.6V1162.65" fill="#C2D2FF"/>
<path d="M2232.19 90.9593V1128.75H2178.82V121.213C2196.06 110.377 2213.87 100.297 2232.19 90.9593" fill="#C2D2FF"/>
<path d="M2214.25 605.39H2209.95C2207.08 605.39 2204.7 603.186 2204.62 600.399L2202.71 542.068C2202.63 539.151 2205.06 536.753 2208.07 536.753H2216.29C2219.32 536.753 2221.73 539.164 2221.63 542.081L2219.59 600.412C2219.48 603.186 2217.12 605.39 2214.25 605.39" fill="#9DB0F4"/>
<path d="M2537.93 582.571L2608.14 591.685L2535.29 1114.9L2465.08 1105.78L2537.93 582.571Z" fill="#D2E4FF"/>
<path d="M2536.58 1105.64L2535.29 1114.9L2465.09 1105.79L2466.37 1096.54L2536.58 1105.64" fill="#F99746"/>
<path d="M2608.79 587.049L2607.51 596.303L2537.29 587.201L2538.57 577.947L2608.79 587.049Z" fill="#F99746"/>
<path d="M2504.71 1077.71C2497.73 1076.82 2492.85 1070.63 2493.79 1063.89C2494.72 1057.17 2501.13 1052.45 2508.11 1053.35C2515.08 1054.26 2519.97 1060.45 2519.04 1067.17C2518.11 1073.9 2511.68 1078.62 2504.71 1077.71Z" fill="#F99746"/>
<path d="M2564.48 648.577C2557.51 647.674 2552.61 641.488 2553.56 634.76C2554.49 628.032 2560.9 623.306 2567.86 624.209C2574.84 625.112 2579.73 631.313 2578.8 638.041C2577.87 644.769 2571.46 649.48 2564.48 648.577Z" fill="#F99746"/>
<path d="M2506.03 811.701C2521.48 816.648 2531.61 831.65 2529.36 847.8C2527.11 863.94 2513.24 875.83 2496.98 876.663L2506.03 811.701Z" fill="#F99746"/>
<path d="M2282.87 1114.85H2086.2C2077.19 1114.85 2069.88 1107.9 2069.88 1099.33V1099.1C2069.88 1090.52 2077.19 1083.57 2086.2 1083.57H2282.87C2291.89 1083.57 2299.19 1090.52 2299.19 1099.1V1099.33C2299.19 1107.9 2291.89 1114.85 2282.87 1114.85Z" fill="#ED7D2B"/>
<path d="M1913.85 1114.83H2133.1C2145.25 1114.83 2155.22 1105.36 2155.22 1093.79V934.569C2155.22 923.001 2145.25 913.534 2133.1 913.534H1913.85C1901.69 913.534 1891.74 923.001 1891.74 934.569V1093.79C1891.74 1105.36 1901.69 1114.83 1913.85 1114.83Z" fill="#ED7D2B"/>
<path d="M2097.58 914.417C2097.58 914.417 2043 881.362 1990.75 880.995C1956.74 880.75 1917.97 913.022 1915.63 913.365C1909.72 914.246 1935.34 914.54 1935.34 914.54C1935.34 914.54 1973.73 892.976 1990.99 892.474C2011.79 891.85 2064.71 916.302 2064.71 916.302L2097.58 914.417" fill="#F99746"/>
<path d="M1888.24 1114.83H2107.48C2119.65 1114.83 2129.6 1105.36 2129.6 1093.79V934.571C2129.6 923.007 2119.65 913.539 2107.48 913.539H1888.24C1876.07 913.539 1866.12 923.007 1866.12 934.571V1093.79C1866.12 1105.36 1876.07 1114.83 1888.24 1114.83Z" fill="#F99746"/>
<path d="M2799.22 1448.11H2505.68V1430.61H2799.22C2830.16 1430.61 2855.32 1406.67 2855.32 1377.26V22.5111H2873.73V1377.26C2873.73 1416.33 2840.3 1448.11 2799.22 1448.11Z" fill="#EBF3FA"/>
<path d="M2722.17 1863.33H2703.76V1437.74H2722.17V1863.33Z" fill="#EBF3FA"/>
<path d="M2659.66 1863.33H2345.08L2333.34 1614.8H2670.34L2659.66 1863.33Z" fill="#9DB0F4"/>
<path d="M2671.78 1624.43H2326.88C2324.11 1624.43 2321.86 1622.3 2321.86 1619.67V1618.18C2321.86 1615.56 2324.11 1613.42 2326.88 1613.42H2671.78C2674.54 1613.42 2676.79 1615.56 2676.79 1618.18V1619.67C2676.79 1622.3 2674.54 1624.43 2671.78 1624.43Z" fill="#C2D2FF"/>
<path d="M2634.49 1766.44H2368.47V1698.26H2634.49V1766.44Z" fill="#C2D2FF"/>
<path d="M2849.13 1863.33H2578.6L2568.49 1548.71H2858.3L2849.13 1863.33Z" fill="#FF9E55"/>
<path d="M2863.85 1564.6H2558.63V1540.43H2863.85V1564.6Z" fill="#E58638"/>
<path d="M2827.48 1740.69H2598.71V1654.37H2827.48V1740.69" fill="#FFE4CC"/>
<path d="M1502.78 1840.76L1777.48 1793.27V1867.02H1501.46C1501.46 1867.02 1504.09 1839.51 1502.78 1840.76Z" fill="#F99746"/>
<path d="M1964.12 1867.02H1777.48V1793.27H1964.12V1867.02Z" fill="#E58638"/>
<path d="M2910.79 826.179L2885 764.257C2882.61 758.528 2885.58 751.984 2891.61 749.713L2891.94 749.593C2897.95 747.322 2904.85 750.153 2907.22 755.882L2933.03 817.804C2935.41 823.533 2932.44 830.077 2926.42 832.346L2926.1 832.468C2920.07 834.737 2913.19 831.908 2910.79 826.179" fill="#2A4E96"/>
<path d="M2839.31 735.279L2919.66 704.999C2926.29 702.503 2933.85 705.615 2936.47 711.914L2943.81 729.517C2946.43 735.815 2943.16 743.01 2936.54 745.506L2856.19 775.784C2849.58 778.28 2842 775.17 2839.38 768.872L2832.04 751.267C2829.42 744.968 2832.69 737.775 2839.31 735.279Z" fill="#2A4E96"/>
<path d="M2814.55 709.319L2918.97 669.966L2940.13 720.721L2835.71 760.074L2814.55 709.319Z" fill="#AFCDFB"/>
<path d="M2820.24 721.883C2820.24 721.883 2831.49 725.32 2844.59 716.666C2857.7 708.012 2851.54 701.139 2867.34 703.431C2883.13 705.721 2896.77 699.104 2899.18 692.996C2901.6 686.886 2926.76 688.158 2926.76 688.158L2918.98 669.967L2814.55 709.32L2820.24 721.883" fill="white"/>
<path d="M2924.88 821.138C2925.51 822.647 2924.74 824.354 2923.14 824.953C2921.56 825.55 2919.77 824.811 2919.14 823.304C2918.51 821.795 2919.28 820.088 2920.88 819.489C2922.46 818.893 2924.25 819.631 2924.88 821.138Z" fill="#98C6F4"/>
<path d="M2881.07 532.344C2881.07 532.344 2863.62 497.885 2849.47 487.189C2835.31 476.498 2797.54 479.103 2796.07 481.843C2791.58 490.312 2826.4 503.511 2830.41 511.288C2834.42 519.066 2817.76 518.283 2830.55 531.799C2841.37 543.215 2867.28 554.097 2867.28 554.097L2881.07 532.344" fill="#FFB27D"/>
<path d="M2865.98 528.418C2875.14 514.844 2877.89 514.138 2877.89 514.138C2877.89 514.138 3029.6 571.685 3044.09 576.489C3058.55 581.295 3275 593.396 3275 593.396L3340.33 729.935C3340.33 729.935 3051.89 667.374 3015.46 654.517C2955.25 633.268 2858.67 550.039 2858.67 550.039C2858.67 550.039 2858.79 539.08 2865.98 528.418Z" fill="#00CC66"/>
<path d="M3242.86 1805.08C3242.86 1805.08 3239.56 1855.72 3229.67 1867.63H3077.49C3078.47 1862.58 3082.76 1850.11 3101.78 1846.95C3125.84 1842.97 3166.08 1826.91 3180.63 1796.68C3195.97 1764.89 3242.86 1805.08 3242.86 1805.08Z" fill="#163560"/>
<path d="M3512.89 1798.02C3512.89 1798.02 3522.38 1863.79 3509.35 1864.93C3507.64 1865.09 3451.48 1865.05 3429.52 1864.93C3402.14 1864.79 3358.45 1865.09 3358.45 1865.09C3352.79 1865.32 3349.09 1859.5 3351.96 1854.86C3355.12 1849.78 3361.15 1844.35 3372.64 1842.26C3396.61 1837.86 3436.54 1821.12 3450.53 1790.67C3465.26 1758.62 3512.89 1798.02 3512.89 1798.02" fill="#163560"/>
<path d="M3171.3 1131.09C3171.3 1131.09 3209.56 1258.42 3319.23 1479.52C3428.89 1700.64 3437.36 1801.39 3437.36 1801.39L3512.89 1798.02C3512.89 1798.02 3505.78 1534.83 3453.99 1423.24C3402.18 1311.67 3391.65 1006.33 3391.65 1006.33L3171.3 1131.09Z" fill="#233862"/>
<path d="M3109.89 1021.52C3109.89 1021.52 3106.84 1218.69 3142.72 1460.77C3178.58 1702.84 3166.42 1805.6 3166.42 1805.6L3252.33 1808.32C3252.33 1808.32 3303.67 1566.15 3288.96 1444.99C3274.24 1323.82 3359.25 1029.21 3359.25 1029.21L3109.89 1021.52Z" fill="#2A4E96"/>
<path d="M3279.4 560.139L3238.88 588.68L3180.31 576.957C3181.14 571.877 3185 550.828 3188.52 531.764C3188.72 530.639 3188.94 529.514 3189.14 528.415C3192.16 512.192 3194.76 498.255 3194.76 498.255L3249.46 472.331L3269.86 462.665C3269.8 463.008 3268.27 480.67 3268.05 483.247C3264.23 529.035 3279.4 560.139 3279.4 560.139" fill="#FFB27D"/>
<path d="M3184.43 545.733C3185.72 545.219 3264.08 523.224 3272.61 525.898C3281.12 528.571 3286.16 544.239 3286.16 544.239L3165.15 577.019C3165.15 577.019 3168.06 552.292 3184.43 545.733" fill="#00CC66"/>
<path d="M3395.46 1045.86C3382.2 1103.49 3105.24 922.65 3108.91 887.478C3109.33 883.617 3109.73 879.722 3110.12 875.861C3115.24 826.885 3120.15 778.97 3120.48 747.693C3120.75 720.566 3124.68 692.828 3129.92 667.634C3134.73 644.369 3140.66 623.259 3145.79 606.815C3149.43 595.232 3156.19 585.032 3165.15 577.018C3171.5 571.324 3178.98 566.754 3187.25 563.631C3189.48 562.732 3191.78 561.991 3194.12 561.347C3227.47 552.144 3273.63 540.753 3286.16 544.229C3320.05 553.721 3345.22 610.452 3363.05 682.79C3396.43 818.196 3404.13 1008.31 3395.46 1045.86" fill="#00CC66"/>
<path d="M3263.96 484.051C3251.95 505.91 3207.19 524.81 3188.52 531.76C3188.74 530.635 3188.94 529.51 3189.16 528.411C3192.17 512.189 3194.77 498.252 3194.77 498.252L3249.46 472.327C3261.56 472.152 3268.92 475.057 3263.96 484.051Z" fill="#FCA56B"/>
<path d="M3168.18 495.213C3168.18 495.213 3266.85 524.487 3285.06 465.766C3303.3 407.046 3328.31 371.277 3266.07 350.104C3203.85 328.932 3184.6 347.887 3173.49 366.08C3162.4 384.272 3142.99 486.086 3168.18 495.213Z" fill="#FFB27D"/>
<path d="M3177.4 360.414C3177.4 360.414 3183.68 428.747 3198.54 425.78C3213.4 422.814 3226.88 420.615 3224.7 441.215C3222.53 461.812 3201.92 485.597 3247.72 489.24C3293.51 492.884 3359.34 380.571 3346.77 359.303C3310.45 297.946 3124.93 285.563 3177.4 360.414" fill="#163560"/>
<path d="M3117.27 1021.52C3144.7 1030.95 3116.8 995.602 3117.27 988.225C3119.41 955.829 3106.05 914.861 3110.12 875.861L3277.66 780.625C3277.66 780.625 3317.41 1020.01 3117.27 1021.52" fill="#00CC66"/>
<path d="M3395.46 1045.86C3323.97 1171.91 3312.57 1220.05 3312.57 1220.05C3250.33 1213.3 3143.66 1096.93 3109.83 1065.87C3109.83 1065.87 3105.24 922.647 3108.93 887.475L3160.63 886.061C3160.63 886.061 3254.08 908.585 3278.3 878.016C3302.54 847.445 3292.04 697.397 3292.04 697.397L3363.08 682.788C3396.43 818.194 3414.68 1012.03 3395.46 1045.86" fill="#2A4E96"/>
<path d="M2971.11 804.303C2971.11 804.303 2937.07 782.4 2930.61 780.493C2924.16 778.584 2920.37 769.078 2919.27 767.566C2915.39 762.253 2913.5 771.742 2915.23 775.258C2917.26 779.331 2920.15 785.161 2910.7 783.857C2908.89 783.606 2893.44 783.255 2890.23 790.004C2887.03 796.754 2884.19 819.877 2900.52 826.887C2916.86 833.897 2957.16 827.563 2960.07 828.366C2984.72 835.178 2971.11 804.303 2971.11 804.303" fill="#FFB27D"/>
<path d="M2970.8 798.385C2970.8 798.385 3136.95 825.248 3151.68 818.431C3175.17 807.549 3142.56 647.223 3142.56 647.223C3142.56 647.223 3141.16 610.891 3185.79 602.32C3224.57 594.872 3261.98 622.501 3261.98 622.501C3261.98 622.501 3296.01 651.458 3291.67 683.576C3282.04 754.771 3267.04 899.576 3216.97 921.771C3152.38 950.4 2965.5 842.385 2965.5 842.385C2965.5 842.385 2959.27 835.137 2960.16 821.679C2960.93 809.808 2970.8 798.385 2970.8 798.385" fill="#00CC66"/>
<path d="M3305.81 694.563L3292.04 697.397C3292.04 697.397 3262.93 577.596 3165.16 577.016C3171.51 571.32 3178.99 566.751 3187.27 563.63C3223.08 572.769 3285.3 601.891 3305.81 694.563Z" fill="#2A4E96"/>
<path d="M2868.13 497.751L2810.47 530.339C2805.12 533.355 2798.28 531.842 2795.25 526.977L2795.07 526.718C2792.04 521.855 2793.9 515.406 2799.25 512.393L2856.92 479.806C2862.24 476.786 2869.1 478.296 2872.14 483.161L2872.3 483.43C2875.35 488.295 2873.46 494.737 2868.13 497.751Z" fill="#2A4E96"/>
<path d="M2806.65 604.745L2728.71 480.004C2723.83 472.207 2726.56 462.033 2734.76 457.395L2742.66 452.924C2750.86 448.302 2761.57 450.879 2766.43 458.692L2844.37 583.428C2849.25 591.227 2846.52 601.402 2838.31 606.038L2830.42 610.5C2822.23 615.137 2811.53 612.545 2806.65 604.745" fill="#2A4E96"/>
<path d="M2834.38 608.259L2787.12 634.983L2691.45 481.868L2701.18 476.378L2738.71 455.161L2834.38 608.259Z" fill="#AFCDFB"/>
<path d="M2800.57 626.817L2787.11 634.986L2691.45 481.873L2701.17 476.382C2706.79 480.222 2731.88 498.507 2733.78 518.392C2735.93 540.79 2764.83 555.803 2765.64 567.638C2766.44 579.473 2765.64 596.654 2780.89 601.618C2796.15 606.581 2800.57 626.817 2800.57 626.817" fill="white"/>
<path d="M2861.23 486.231C2862.63 485.445 2864.45 485.88 2865.29 487.218C2866.12 488.556 2865.66 490.278 2864.25 491.08C2862.85 491.866 2861.03 491.432 2860.19 490.094C2859.36 488.756 2859.82 487.034 2861.23 486.231Z" fill="#98C6F4"/>
<path d="M2843.3 522.331C2843.12 522.177 2835.62 513.58 2828.22 505.254C2822.78 499.115 2819.41 491.183 2817.04 488.81C2811.44 483.201 2806.67 495.829 2814.98 511.763C2821.99 525.253 2835.03 536.275 2839.58 539.234C2844.13 542.192 2843.3 522.331 2843.3 522.331" fill="#FFB27D"/>
<path d="M1560.47 1322.34C1558.19 1321.4 1557.14 1318.86 1558.14 1316.69L1578.19 1273.11C1579.78 1269.66 1578.12 1265.63 1574.49 1264.13L1473.61 1222.16C1465.42 1218.75 1461.68 1209.65 1465.27 1201.87L1480.36 1169.04C1483.95 1161.26 1493.52 1157.69 1501.69 1161.1L1543.57 1178.53C1545.85 1179.47 1546.9 1182 1545.89 1184.17C1544.89 1186.34 1542.24 1187.33 1539.96 1186.39L1498.07 1168.96C1494.45 1167.46 1490.21 1169.04 1488.63 1172.48L1473.54 1205.3C1471.95 1208.75 1473.61 1212.78 1477.22 1214.28L1578.12 1256.25C1586.29 1259.66 1590.05 1268.76 1586.46 1276.54L1566.4 1320.13C1565.41 1322.31 1562.76 1323.3 1560.47 1322.34" fill="#C2D2FF"/>
<path d="M1557.95 1338.83L1547.68 1334.56C1543.83 1332.96 1542.07 1328.66 1543.76 1325.02L1566.57 1275.42C1568.24 1271.77 1572.76 1270.1 1576.6 1271.69L1586.86 1275.96C1590.7 1277.56 1592.47 1281.85 1590.79 1285.51L1567.97 1335.09C1566.29 1338.75 1561.79 1340.42 1557.95 1338.83" fill="#F99746"/>
<path d="M1717.2 1237.07L1703.01 1267.91C1699.32 1275.94 1689.47 1279.6 1681.03 1276.09L1513.14 1206.25C1504.71 1202.74 1500.85 1193.38 1504.54 1185.34L1518.73 1154.5C1522.43 1146.47 1532.28 1142.82 1540.71 1146.32L1708.58 1216.16C1717.03 1219.67 1720.9 1229.04 1717.2 1237.07" fill="#C2D2FF"/>
<path d="M1717.2 1237.07L1712.31 1247.69C1708.62 1255.72 1698.77 1259.37 1690.33 1255.86L1522.45 1186.02C1514.01 1182.51 1510.15 1173.15 1513.85 1165.12L1518.73 1154.5C1522.43 1146.47 1532.28 1142.82 1540.71 1146.32L1708.58 1216.16C1717.03 1219.67 1720.9 1229.04 1717.2 1237.07" fill="#EBF3FA"/>
<path d="M1258.46 1362.01C1258.46 1362.01 1294.96 1367.03 1303.43 1376.09C1311.89 1385.14 1317.18 1392.19 1311.89 1396.21C1306.59 1400.24 1226.18 1380.62 1226.18 1380.62L1258.46 1362.01" fill="#FFB27D"/>
<path d="M1170.63 1239.24L1269.04 1358.98C1269.04 1358.98 1260.57 1375.09 1233.06 1378.11C1205.55 1381.12 1147.36 1364.02 1147.36 1358.98C1147.36 1353.95 1170.63 1239.24 1170.63 1239.24Z" fill="#00CC66"/>
<path d="M1482.1 1498.63C1453.48 1529.99 1393.13 1550.27 1276.68 1555.4C1267.33 1555.82 1257.92 1556.16 1248.48 1556.43C1238.75 1556.72 1229 1556.92 1219.26 1557.04C1187.61 1557.46 1156.12 1557.11 1126.11 1556.15C1097.02 1555.2 1069.31 1553.69 1044.2 1551.71C995.094 1547.83 955.891 1542.17 935.639 1535.69C929.577 1533.75 925.213 1531.75 922.783 1529.68C920.704 1527.92 919.022 1525.85 917.753 1523.5C910.404 1510.54 914.246 1489.31 923.118 1465.9C936.052 1431.85 959.795 1393.22 975.778 1369.06C978.984 1364.24 981.841 1360 984.268 1356.49C989.142 1349.39 992.174 1345.24 992.174 1345.24C992.174 1345.24 1046.56 1350.04 1121.03 1359.22C1136.22 1361.08 1152.27 1363.15 1168.84 1365.38C1328.95 1386.92 1488.48 1425.62 1488.32 1476.97C1488.31 1484.8 1488.85 1491.24 1482.1 1498.63" fill="#2B478B"/>
<path d="M1283.85 1554.78C1274.12 1555.06 1229 1556.92 1219.26 1557.04C1187.61 1557.46 1156.12 1557.11 1126.11 1556.15L1097.89 1448.02C1141.54 1505.92 1269.82 1551.04 1283.85 1554.78Z" fill="#2C3A64"/>
<path d="M1189.54 1868.85H1344.75C1342.3 1863.22 1336.4 1855.91 1321.98 1853.5C1297.54 1849.43 1255.1 1836.86 1260.54 1803.3C1266.05 1769.27 1206.52 1764.89 1206.52 1764.89C1206.52 1764.89 1181.75 1855.91 1189.54 1868.85" fill="#2C3A64"/>
<path d="M1484.62 1493.07C1484.62 1493.07 1292.07 1781.14 1276.06 1815.38C1276.06 1815.38 1210.55 1821.18 1194.78 1776.67C1194.78 1776.67 1309.25 1472.65 1359.54 1447.61C1409.85 1422.55 1484.62 1493.07 1484.62 1493.07" fill="#2B478B"/>
<path d="M1096.32 886.561C1096.32 886.561 1162.63 972.866 1221.73 977.476C1221.73 977.476 1214.18 944.995 1196.74 924.514C1201.42 917.319 1205.5 910.743 1209 904.871C1220.61 885.312 1225.75 873.615 1225.75 873.615L1198.56 826.841L1192.95 801.701C1188.36 813.507 1182.98 824.39 1176.97 833.381C1146 879.621 1096.32 886.561 1096.32 886.561" fill="#FFB27D"/>
<path d="M1174.38 832.92C1174.38 832.92 1164.76 876.151 1209 904.87C1220.61 885.312 1225.75 873.615 1225.75 873.615L1198.57 826.841C1176.84 823.783 1174.38 832.92 1174.38 832.92Z" fill="#ED975D"/>
<path d="M1234.02 899.69C1234.02 899.69 1150.85 856.592 1179.86 807.755C1208.88 758.906 1217.68 720.456 1272.01 745.9C1326.34 771.343 1325.5 795.476 1319.99 814.028C1314.47 832.568 1256.4 909.639 1234.02 899.69Z" fill="#FFB27D"/>
<path d="M1180.16 710.507C1179.7 709.281 1178.09 707.837 1173.91 706.041C1173.91 706.041 1178.16 705.229 1182.77 706.806C1185.99 701.394 1193.26 692.416 1204.48 693.702C1204.48 693.702 1197.84 694.503 1194.65 700.339C1211.25 692.95 1240.07 693.714 1308.09 724.86C1397.74 765.895 1344.01 811.905 1329.27 814.331C1314.52 816.746 1291.96 786.971 1268.96 780.492C1245.95 774 1229.05 803.581 1219.75 805.074C1210.44 806.566 1216.49 800.111 1208.06 791.873C1199.63 783.634 1192 799.674 1190.63 811.419C1189.26 823.165 1169.48 832.046 1169.48 832.046C1169.48 832.046 1169.48 832.046 1161.26 812.038C1153.05 792.018 1165.1 724.436 1176.99 713.455C1178.04 712.484 1179.09 711.489 1180.16 710.507" fill="#2B478B"/>
<path d="M683.572 1774.67C683.572 1774.67 664.225 1802.59 659.726 1811.64C655.226 1820.68 664.053 1839.94 677.322 1842.84C689.02 1845.4 690.77 1865.13 690.77 1865.13H634.053C628.051 1865.13 622.633 1861.98 620.321 1857.14C612.323 1840.39 610.492 1818.63 608.884 1811.34C605.501 1796.04 598.799 1783.19 601.761 1767.59C604.712 1752.06 632.646 1743.07 683.572 1743.21C739.515 1743.37 683.572 1774.67 683.572 1774.67" fill="#233862"/>
<path d="M850.319 1437.97C893.09 1481.08 1207.15 1391.91 1180.83 1369.19C1174.14 1363.43 1176.42 1356.49 1173.7 1347.19C1160.67 1303.1 1186.61 1227.65 1197.74 1198.41C1200.34 1191.63 1202.12 1187.35 1202.46 1186.49C1213.08 1159.19 1221.29 1130.76 1226.66 1103.3C1237.02 1050.59 1236.82 1001.59 1222.66 971.555C1222.57 971.397 1222.54 971.264 1222.45 971.143C1163.61 954.787 1131.22 872.474 1131.22 872.474C1131.22 872.474 944.844 922.816 877.196 1175.73C877.196 1175.73 873.704 1191.86 869.393 1216.07H869.368C868.068 1223.49 866.671 1231.69 865.274 1240.42C858.049 1285.42 853.859 1343.14 849.572 1386.1C849.404 1387.6 849.259 1389.1 849.091 1390.66C846.947 1409.19 843.215 1430.81 850.319 1437.97" fill="#00CC66"/>
<path d="M1097.63 1395.2C1097.63 1395.2 1066.32 1399.13 1003.17 1403.55C937.739 1408.16 868.381 1417.98 857.11 1438.87C853.377 1445.8 855.978 1463.32 863.275 1487.53C879.41 1541.03 918.521 1627.19 963.171 1703.6C848.464 1709.9 692.407 1733.99 692.407 1733.99C666.881 1761.44 677.573 1793.56 677.573 1793.56C685.76 1793.62 710.374 1796.93 743.969 1802.08C865.684 1820.72 1013.91 1859.04 1105.83 1859.04C1125.93 1859.04 1140.97 1845.45 1147.09 1827.71V1827.68C1184.85 1718.37 1097.63 1395.2 1097.63 1395.2" fill="#2B478B"/>
<path d="M863.275 1495.64C926.589 1493.75 1085.39 1419.61 1082.79 1419.01C1053.22 1412.09 1026.77 1407.31 1003.17 1404.29C937.739 1409.3 868.381 1419.98 857.11 1442.72C853.377 1450.25 855.978 1469.31 863.275 1495.64" fill="#2C3A64"/>
<path d="M1066.58 1045.3C1066.58 1045.3 1070.27 1319.25 1173.7 1347.19C1160.67 1303.1 1186.61 1227.65 1197.74 1198.41C1171.08 1127.97 1122 1056.89 1066.58 1045.3Z" fill="#00CC66"/>
<path d="M1099.96 884.802C1099.96 884.802 1179.63 900.575 1187.41 966.969C1193.07 1015.32 1137.48 1124.81 1137.48 1124.81L1126.9 1114.74C1126.9 1114.74 1175.69 979.551 1168.19 956.558C1158.56 927.062 1112.76 882.945 1070.63 900.575L1099.96 884.802" fill="#2B478B"/>
<path d="M850.319 1437.97C893.09 1481.08 1213.92 1392.86 1187.6 1370.14C1180.9 1364.37 1176.42 1356.49 1173.7 1347.19C1160.67 1303.1 1186.61 1227.65 1197.74 1198.41C1200.34 1191.63 1202.12 1187.35 1202.46 1186.49L1186.25 1171.09L1126.89 1114.75C1126.89 1114.75 1109.33 1133.69 1076.14 1155.17C1032.65 1183.37 962.304 1215.93 869.393 1216.07H869.368C868.068 1223.49 866.671 1231.69 865.274 1240.42C858.049 1285.42 853.859 1343.14 849.572 1386.1C849.404 1387.6 849.259 1389.1 849.091 1390.66C846.947 1409.19 843.215 1430.81 850.319 1437.97" fill="#2B478B"/>
<path d="M1076.14 1155.17C1088.02 1234.8 1114.56 1331.2 1173.7 1347.19C1160.67 1303.1 1186.61 1227.65 1197.74 1198.41C1194.27 1189.28 1190.44 1180.12 1186.25 1171.09L1126.88 1114.75C1126.88 1114.75 1109.33 1133.69 1076.14 1155.17" fill="#2C3A64"/>
<path d="M1561.07 1335.34C1541.68 1335.34 1505.56 1318.52 1502.31 1318.22C1474.67 1315.71 1501.32 1289.85 1501.32 1289.85C1501.32 1289.85 1544.74 1280.77 1552.03 1281.29C1554.41 1281.48 1558.37 1282.24 1562.63 1283.24L1557.97 1293.83C1557.97 1293.83 1588.23 1298.21 1588.62 1306.2C1589.01 1314.22 1570.59 1335.34 1561.07 1335.34Z" fill="#FFB27D"/>
<path d="M1509.85 1302.64C1516.51 1284.34 1507.23 1278.63 1507.23 1278.63C1507.23 1278.63 1317.59 1193.11 1302.09 1183.68C1286.58 1174.27 1182.33 993.699 1182.33 993.699C1182.33 993.699 1143.68 919.867 1094.46 921.347C1051.69 922.634 1027.92 947.992 1014.74 974.576C999.025 1006.26 1005.65 1043.89 1030.95 1069.35C1087.73 1126.5 1201.76 1239.65 1231.3 1256.82C1297.05 1295.05 1494.09 1325.97 1494.09 1325.97C1494.09 1325.97 1504.62 1317.02 1509.85 1302.64" fill="#00CC66"/>
<path d="M3791.6 1878.51H328.894C326.178 1878.51 323.956 1876.4 323.956 1873.81V1869.41C323.956 1866.83 326.178 1864.72 328.894 1864.72H3791.6C3794.32 1864.72 3796.53 1866.83 3796.53 1869.41V1873.81C3796.53 1876.4 3794.32 1878.51 3791.6 1878.51Z" fill="#2E3552"/>
<path d="M2397.01 1743.11C2381.16 1810.8 2327.22 1864.91 2276.52 1863.95C2225.83 1863 2197.59 1807.36 2213.44 1739.67C2229.28 1671.99 2283.24 1617.88 2333.94 1618.83C2384.62 1619.79 2412.87 1675.43 2397.01 1743.11Z" fill="#8097D8"/>
<path d="M2385.62 1740.63C2369.76 1808.31 2315.83 1862.41 2265.12 1861.45C2214.43 1860.5 2186.19 1804.86 2202.04 1737.17C2217.9 1669.49 2271.85 1615.38 2322.53 1616.33C2373.23 1617.29 2401.47 1672.93 2385.62 1740.63Z" fill="#C2D2FF"/>
<path d="M2316.77 1634.47C2274.19 1634.47 2229.02 1680.23 2215.68 1737.14C2207.71 1771.21 2212.72 1803.38 2229.1 1823.22C2239.25 1835.52 2253.02 1842.18 2268.9 1842.47C2269.26 1842.48 2269.64 1842.48 2270.01 1842.48C2312.59 1842.48 2357.78 1796.73 2371.1 1739.81C2379.09 1705.75 2374.06 1673.58 2357.68 1653.75C2347.51 1641.44 2333.76 1634.79 2317.88 1634.48C2317.5 1634.47 2317.14 1634.47 2316.77 1634.47V1634.47ZM2270.01 1843.73C2269.63 1843.73 2269.25 1843.73 2268.87 1843.72C2252.59 1843.42 2238.48 1836.59 2228.07 1823.98C2211.45 1803.87 2206.34 1771.3 2214.4 1736.88C2227.96 1678.9 2274.39 1632.36 2317.9 1633.23C2334.19 1633.54 2348.3 1640.37 2358.71 1652.97C2375.35 1673.09 2380.44 1705.66 2372.38 1740.09C2358.93 1797.54 2313.18 1843.73 2270.01 1843.73" fill="#8097D8"/>
</svg>
