
        <svg xmlns="http://www.w3.org/2000/svg" xmlns:xlink="http://www.w3.org/1999/xlink" version="1.1" width="3154.3511044087645" 
        height="672.9708152222123" viewBox="0 0 3154.3511044087645 672.9708152222123">
			
			<g transform="scale(7.717555220438215) translate(10, 10)">
				<defs id="SvgjsDefs2418"></defs><g id="SvgjsG2419" featureKey="symbolContainer" transform="matrix(1.3439999999999999,0,0,1.3439999999999999,0,0)" fill="#4ecca3"><circle cx="25" cy="25" r="25"></circle></g><g id="SvgjsG2420" featureKey="symbolFeature-0" transform="matrix(0.3771551724137931,0,0,0.3771551724137931,9,9)" fill="#ffffff"><rect xmlns="http://www.w3.org/2000/svg" style="" width="128" height="128" fill="none"></rect><path xmlns="http://www.w3.org/2000/svg" d="M108,39h-6.618c-0.786-2.677-1.847-5.248-3.165-7.662l4.673-4.673c0.391-0.391,0.391-1.023,0-1.414L88.749,11.109  c-0.391-0.391-1.023-0.391-1.414,0l-4.673,4.673c-2.413-1.316-4.983-2.379-7.661-3.164V6c0-0.553-0.448-1-1-1H54  c-0.552,0-1,0.447-1,1v6.618c-2.678,0.785-5.249,1.848-7.661,3.164l-4.673-4.673c-0.391-0.391-1.023-0.391-1.414,0L25.109,25.251  c-0.188,0.188-0.293,0.441-0.293,0.707s0.105,0.52,0.293,0.707l4.673,4.673c-1.317,2.412-2.378,4.983-3.165,7.662H20  c-0.552,0-1,0.447-1,1v20c0,0.553,0.448,1,1,1h6.618c0.787,2.679,1.848,5.25,3.165,7.662l-4.673,4.673  c-0.188,0.188-0.293,0.441-0.293,0.707s0.105,0.52,0.293,0.707l14.142,14.142c0.391,0.391,1.023,0.391,1.414,0l4.673-4.673  c2.413,1.316,4.983,2.379,7.661,3.164v5.719c-2.279,0.465-4,2.484-4,4.899c0,1.641,0.806,3.088,2.031,4  c-1.225,0.912-2.031,2.359-2.031,4s0.806,3.088,2.031,4c-1.225,0.912-2.031,2.359-2.031,4c0,2.757,2.243,5,5,5h5.101  c0.464,2.279,2.485,4,4.899,4s4.435-1.721,4.899-4H74c2.757,0,5-2.243,5-5c0-1.641-0.806-3.088-2.031-4  c1.225-0.912,2.031-2.359,2.031-4s-0.806-3.088-2.031-4C78.194,101.088,79,99.641,79,98c0-2.414-1.721-4.434-4-4.899v-5.719  c2.678-0.786,5.25-1.848,7.662-3.164l4.673,4.673c0.375,0.375,1.039,0.375,1.414,0l14.142-14.142c0.391-0.391,0.391-1.023,0-1.414  l-4.673-4.673c1.317-2.414,2.379-4.985,3.165-7.662H108c0.552,0,1-0.447,1-1V40C109,39.447,108.552,39,108,39z M77,114  c0,1.654-1.346,3-3,3h-6c-0.552,0-1,0.447-1,1c0,1.654-1.346,3-3,3s-3-1.346-3-3c0-0.553-0.448-1-1-1h-6c-1.654,0-3-1.346-3-3  s1.346-3,3-3h20C75.654,111,77,112.346,77,114z M77,106c0,1.654-1.346,3-3,3H54c-1.654,0-3-1.346-3-3s1.346-3,3-3h20  C75.654,103,77,104.346,77,106z M77,98c0,1.654-1.346,3-3,3H54c-1.654,0-3-1.346-3-3s1.346-3,3-3h20C75.654,95,77,96.346,77,98z   M107,59h-6.374c-0.451,0-0.846,0.302-0.965,0.737c-0.826,3.03-2.021,5.924-3.553,8.6c-0.224,0.392-0.159,0.885,0.161,1.204  l4.5,4.501L88.042,86.77l-4.5-4.501c-0.319-0.319-0.813-0.386-1.204-0.161c-2.675,1.531-5.568,2.728-8.6,3.554  C73.302,85.78,73,86.175,73,86.626V93H55v-6.374c0-0.451-0.302-0.846-0.737-0.965c-3.031-0.826-5.925-2.021-8.6-3.554  c-0.393-0.225-0.886-0.158-1.204,0.161l-4.501,4.501L27.23,74.042l4.501-4.501c0.319-0.319,0.385-0.812,0.161-1.204  c-1.531-2.674-2.727-5.567-3.553-8.6C28.22,59.302,27.825,59,27.374,59H21V41h6.374c0.451,0,0.846-0.302,0.965-0.737  c0.827-3.032,2.022-5.926,3.553-8.6c0.224-0.392,0.159-0.885-0.161-1.204l-4.501-4.501L39.958,13.23l4.501,4.501  c0.318,0.318,0.812,0.385,1.204,0.161c2.675-1.532,5.568-2.728,8.6-3.554C54.698,14.22,55,13.825,55,13.374V7h18v6.374  c0,0.451,0.302,0.846,0.737,0.965c3.031,0.826,5.925,2.021,8.6,3.554c0.392,0.224,0.885,0.157,1.204-0.161l4.501-4.501  l12.728,12.728l-4.5,4.501c-0.319,0.319-0.385,0.812-0.161,1.204c1.532,2.676,2.727,5.569,3.553,8.6  C99.78,40.698,100.175,41,100.626,41H107V59z"></path><path xmlns="http://www.w3.org/2000/svg" d="M64,31c-10.477,0-19,8.523-19,19s8.523,19,19,19s19-8.523,19-19S74.477,31,64,31z M64,67c-9.374,0-17-7.626-17-17  s7.626-17,17-17s17,7.626,17,17S73.374,67,64,67z"></path><path xmlns="http://www.w3.org/2000/svg" d="M55.481,26.487l-0.684-1.879c-0.647,0.235-1.291,0.497-1.913,0.778l0.824,1.822C54.285,26.948,54.881,26.706,55.481,26.487z  "></path><path xmlns="http://www.w3.org/2000/svg" d="M59.164,25.467l-0.384-1.963c-0.67,0.131-1.348,0.291-2.013,0.476l0.535,1.928C57.918,25.736,58.544,25.588,59.164,25.467z"></path><path xmlns="http://www.w3.org/2000/svg" d="M51.999,28.062l-0.963-1.752c-0.608,0.333-1.204,0.69-1.772,1.062l1.094,1.674C50.883,28.703,51.436,28.372,51.999,28.062z"></path><path xmlns="http://www.w3.org/2000/svg" d="M62.962,25.021l-0.079-1.998c-0.683,0.026-1.377,0.081-2.062,0.162l0.234,1.986C61.689,25.097,62.331,25.047,62.962,25.021z  "></path><path xmlns="http://www.w3.org/2000/svg" d="M41.565,38.958l-1.794-0.885c-0.305,0.618-0.588,1.254-0.843,1.89l1.856,0.744C41.02,40.119,41.283,39.53,41.565,38.958z"></path><path xmlns="http://www.w3.org/2000/svg" d="M43.517,35.662l-1.639-1.146c-0.396,0.564-0.773,1.149-1.122,1.737l1.721,1.02C42.8,36.729,43.149,36.187,43.517,35.662z"></path><path xmlns="http://www.w3.org/2000/svg" d="M48.796,30.153l-1.22-1.586c-0.547,0.422-1.082,0.865-1.589,1.319l1.334,1.49C47.792,30.956,48.288,30.544,48.796,30.153z"></path><path xmlns="http://www.w3.org/2000/svg" d="M67.01,23.166c-0.673-0.075-1.366-0.125-2.062-0.149l-0.07,1.998c0.645,0.023,1.287,0.069,1.909,0.14L67.01,23.166z"></path><path xmlns="http://www.w3.org/2000/svg" d="M45.946,32.707l-1.444-1.383c-0.473,0.493-0.934,1.014-1.372,1.545l1.544,1.271C45.08,33.647,45.508,33.165,45.946,32.707z"></path><path xmlns="http://www.w3.org/2000/svg" d="M88.92,47.982l1.993-0.16c-0.055-0.688-0.137-1.379-0.243-2.052l-1.976,0.311C88.793,46.704,88.869,47.344,88.92,47.982z"></path><path xmlns="http://www.w3.org/2000/svg" d="M88.325,44.205l1.946-0.463c-0.16-0.67-0.346-1.341-0.555-1.992l-1.904,0.611C88.005,42.964,88.178,43.584,88.325,44.205z"></path><path xmlns="http://www.w3.org/2000/svg" d="M71.069,23.936c-0.658-0.179-1.336-0.335-2.016-0.463l-0.372,1.965c0.628,0.119,1.256,0.263,1.864,0.428L71.069,23.936z"></path><path xmlns="http://www.w3.org/2000/svg" d="M87.158,40.563l1.852-0.756c-0.259-0.635-0.546-1.269-0.854-1.882l-1.788,0.896C86.652,39.39,86.917,39.976,87.158,40.563z"></path><path xmlns="http://www.w3.org/2000/svg" d="M40.141,42.511l-1.908-0.6c-0.206,0.655-0.388,1.326-0.542,1.996l1.949,0.449C39.782,43.737,39.951,43.116,40.141,42.511z"></path><path xmlns="http://www.w3.org/2000/svg" d="M85.446,37.146l1.715-1.029c-0.354-0.59-0.735-1.173-1.132-1.73l-1.63,1.158C84.766,36.061,85.119,36.6,85.446,37.146z"></path><path xmlns="http://www.w3.org/2000/svg" d="M74.963,25.319c-0.631-0.28-1.278-0.538-1.921-0.768l-0.671,1.885c0.596,0.212,1.195,0.451,1.78,0.711L74.963,25.319z"></path><path xmlns="http://www.w3.org/2000/svg" d="M78.602,27.285c-0.575-0.371-1.175-0.725-1.781-1.053l-0.951,1.76c0.562,0.303,1.116,0.631,1.649,0.975L78.602,27.285z"></path><path xmlns="http://www.w3.org/2000/svg" d="M81.895,29.782c-0.512-0.454-1.05-0.895-1.599-1.312l-1.208,1.594c0.509,0.386,1.007,0.794,1.481,1.214L81.895,29.782z"></path><path xmlns="http://www.w3.org/2000/svg" d="M84.77,32.749c-0.438-0.527-0.902-1.045-1.381-1.539l-1.437,1.393c0.444,0.457,0.874,0.937,1.279,1.424L84.77,32.749z"></path><path xmlns="http://www.w3.org/2000/svg" d="M47.659,71.495c0.545,0.415,1.115,0.814,1.692,1.189l1.087-1.68c-0.535-0.346-1.062-0.717-1.567-1.102L47.659,71.495z"></path><path xmlns="http://www.w3.org/2000/svg" d="M80.64,68.658l1.331,1.492c0.512-0.456,1.013-0.938,1.489-1.434l-1.442-1.387C81.578,67.789,81.114,68.235,80.64,68.658z"></path><path xmlns="http://www.w3.org/2000/svg" d="M77.599,70.982l1.091,1.676c0.575-0.373,1.143-0.774,1.688-1.19l-1.214-1.59C78.658,70.264,78.132,70.636,77.599,70.982z"></path><path xmlns="http://www.w3.org/2000/svg" d="M70.647,74.107l0.53,1.928c0.658-0.181,1.321-0.391,1.971-0.624l-0.677-1.883C71.87,73.745,71.255,73.939,70.647,74.107z"></path><path xmlns="http://www.w3.org/2000/svg" d="M66.893,74.835l0.229,1.986c0.678-0.077,1.366-0.184,2.042-0.314l-0.379-1.963C68.158,74.665,67.521,74.763,66.893,74.835z"></path><path xmlns="http://www.w3.org/2000/svg" d="M74.243,72.813l0.822,1.823c0.633-0.286,1.255-0.596,1.85-0.92l-0.959-1.756C75.406,72.262,74.83,72.549,74.243,72.813z"></path><path xmlns="http://www.w3.org/2000/svg" d="M83.292,65.9l1.542,1.273c0.435-0.526,0.856-1.079,1.254-1.644l-1.635-1.152C84.085,64.9,83.694,65.413,83.292,65.9z"></path><path xmlns="http://www.w3.org/2000/svg" d="M85.496,62.771l1.718,1.023c0.352-0.59,0.685-1.201,0.99-1.816l-1.792-0.889C86.13,61.659,85.822,62.225,85.496,62.771z"></path><path xmlns="http://www.w3.org/2000/svg" d="M89,49.892L89,50c0,0.635-0.024,1.278-0.072,1.914l1.994,0.15C90.974,51.379,91,50.685,91,49.986l0-0.095H89z"></path><path xmlns="http://www.w3.org/2000/svg" d="M88.349,55.694l1.948,0.453c0.156-0.673,0.288-1.355,0.391-2.03l-1.977-0.303C88.615,54.439,88.493,55.072,88.349,55.694z"></path><path xmlns="http://www.w3.org/2000/svg" d="M39.281,46.235l-1.978-0.297c-0.103,0.681-0.18,1.372-0.23,2.054l1.995,0.146C39.114,47.507,39.186,46.866,39.281,46.235z"></path><path xmlns="http://www.w3.org/2000/svg" d="M87.196,59.343l1.855,0.748c0.255-0.635,0.491-1.29,0.699-1.948l-1.907-0.604C87.65,58.148,87.433,58.756,87.196,59.343z"></path><path xmlns="http://www.w3.org/2000/svg" d="M41.608,61.133l-1.79,0.893c0.305,0.611,0.639,1.222,0.992,1.812l1.717-1.027C42.2,62.264,41.891,61.699,41.608,61.133z"></path><path xmlns="http://www.w3.org/2000/svg" d="M40.172,57.589l-1.905,0.607c0.209,0.657,0.446,1.312,0.703,1.944l1.854-0.752C40.585,58.803,40.366,58.197,40.172,57.589z"></path><path xmlns="http://www.w3.org/2000/svg" d="M63.069,74.983l-0.073,1.998C63.329,76.994,63.664,77,64,77c0.355,0,0.708-0.007,1.061-0.021l-0.075-1.998  C64.35,75.005,63.705,75.006,63.069,74.983z"></path><path xmlns="http://www.w3.org/2000/svg" d="M43.571,64.415l-1.633,1.154c0.396,0.561,0.819,1.112,1.256,1.641l1.541-1.275C44.33,65.445,43.938,64.934,43.571,64.415z"></path><path xmlns="http://www.w3.org/2000/svg" d="M39,50.054l-2,0.002c0.001,0.687,0.029,1.381,0.082,2.066l1.994-0.156C39.026,51.332,39.001,50.688,39,50.054z"></path><path xmlns="http://www.w3.org/2000/svg" d="M39.297,53.868l-1.977,0.307c0.105,0.677,0.238,1.358,0.396,2.028l1.947-0.457C39.518,55.126,39.395,54.494,39.297,53.868z"></path><path xmlns="http://www.w3.org/2000/svg" d="M44.572,68.75c0.477,0.494,0.979,0.976,1.491,1.432l1.329-1.494c-0.475-0.423-0.939-0.869-1.381-1.326L44.572,68.75z"></path><path xmlns="http://www.w3.org/2000/svg" d="M58.89,76.516c0.665,0.129,1.353,0.233,2.045,0.312l0.225-1.986c-0.64-0.073-1.276-0.17-1.891-0.288L58.89,76.516z"></path><path xmlns="http://www.w3.org/2000/svg" d="M54.905,75.429c0.643,0.23,1.306,0.438,1.972,0.621l0.527-1.93c-0.617-0.168-1.231-0.361-1.826-0.574L54.905,75.429z"></path><path xmlns="http://www.w3.org/2000/svg" d="M51.129,73.739c0.603,0.327,1.227,0.636,1.854,0.917l0.818-1.824c-0.582-0.261-1.159-0.547-1.717-0.851L51.129,73.739z"></path></g><g id="SvgjsG2421" featureKey="nameFeature-0" transform="matrix(0.8613797895834716,0,0,0.8613797895834716,86.13862067249666,12.488770469246255)" fill="#393e46"><path d="M4.88 38.84 c-0.36 0 -0.56 0.08 -0.8 0.12 c-0.36 0 -0.28 0 -0.32 -0.04 l-0.12 0.04 c0 0.12 0.04 0.12 0.12 0.16 c0 -0.04 -0.12 0.08 -0.2 0.24 l0.04 0 c0 0.04 -1.28 1.04 -1.48 1.04 c-0.92 0 -0.92 -1.08 -0.92 -1.24 c0 -0.08 0 -0.08 0.04 -0.2 c0 -4.48 -0.2 -3.8 -0.2 -6.48 c0 0 0.04 -0.04 0.04 -0.08 c0 -0.12 -0.08 -0.32 -0.08 -0.52 c0 -0.36 0.16 -0.6 1.2 -0.6 c0.12 0 0.28 0.12 0.64 0.76 c0 0.2 0.72 0.8 0.8 1.16 c-0.04 0.04 -0.08 0.08 -0.08 0.12 c0 0.16 0.6 0.4 0.6 0.64 c0 0.04 -0.04 0.08 -0.04 0.08 c0 0.24 0.4 0.44 0.4 0.56 c0.48 0.88 0.52 0.84 1.16 1.48 c0.2 0 1.68 2.64 2.8 2.64 c1.44 0.12 1.72 0.64 3.24 0.64 c0.84 0 0.72 -0.04 1 -0.2 c-0.08 0.08 -0.04 0.08 -0.08 0.08 c0 0 0.28 -0.4 1.6 -0.4 c0.6 0 1.76 -1.12 2 -1.28 c0.08 -0.08 0.48 -0.24 0.48 -0.32 c0 -0.24 0.84 -1.4 0.96 -1.52 c-0.04 -0.08 -0.04 -0.16 -0.04 -0.2 c0 -0.6 0.64 0.32 0.64 -3.4 c-0.04 -0.12 -0.16 -1.4 -0.44 -1.64 c-0.12 0 -0.12 -0.92 -1.08 -1.56 c0 -0.04 0.04 -0.24 0.04 -0.32 c-1.56 -0.08 -0.76 -0.88 -1.8 -0.88 c-1.96 0 -0.4 -0.6 -2.52 -0.6 c-0.2 -0.2 -1.96 -0.16 -2.36 -0.4 c-0.08 0 -0.36 0.08 -0.44 0.08 c-0.48 0 -0.08 -0.4 -1.16 -0.4 c-3.64 -0.2 -1.68 -0.88 -2.92 -0.88 l0 -0.08 c0.12 0 0.28 -0.04 0.4 0.08 c0 0 0.2 -0.08 0.2 -0.12 c0 0 -0.08 -0.08 -0.08 -0.12 l-1.24 0 c-0.4 -0.36 -0.36 -0.6 -0.68 -0.68 c0 -0.04 -0.44 0.04 -1.12 -0.88 c0 -0.28 -0.88 -1.32 -1.08 -1.48 c-0.36 -1.88 -0.8 -3 -0.8 -4.44 c0.08 -0.44 0 -1 0.16 -1.28 l0 0.04 c0.04 0 0.2 -1.36 0.32 -1.28 c-0.04 0 -0.08 -0.04 -0.08 -0.08 c0 -0.32 0.84 -1.2 0.84 -1.52 c-0.04 -0.04 -0.04 -0.08 -0.04 -0.08 c0 -0.28 0.64 -0.56 0.64 -0.68 s0.52 -0.96 0.76 -1.12 c-0.04 0.04 -0.04 0.08 -0.04 0.08 c-0.04 0 1.96 -1.32 2 -1.36 c2.44 -0.4 0.32 -1.08 3.04 -1.08 l3.92 0 c0.08 0 0.92 0 1.32 0.32 c1.64 0.08 1.36 1.04 2.08 1.04 c1.32 0 0.96 -0.08 1.36 -0.48 c-0.16 -0.2 1.08 -0.04 1.2 -0.56 l0.52 0 c0.08 0 0.4 0.32 0.44 0.4 c0.12 4.96 0.36 4.84 0.36 7.44 c0 0.2 -0.36 0.32 -0.52 0.64 l-0.56 0 l0 -0.16 c-0.12 0 -0.96 -0.56 -0.96 -1 l0 0.04 c-0.04 0 -0.32 -1 -0.76 -1.16 l0.04 0 c0 -0.12 -0.52 -0.52 -0.52 -0.8 c-0.6 -0.88 -0.52 -0.84 -1 -1.32 l0.04 0 c0 -0.04 -1 -0.64 -1 -0.92 c0 -0.6 -1.48 -1.32 -1.8 -1.64 c0.12 -0.24 -1.04 -0.56 -2.2 -0.56 c-0.04 0 -0.08 0.04 -0.12 0.04 c-0.4 0 -0.24 -0.68 -0.36 -0.68 c-0.08 0.08 -0.12 0.08 -0.16 0.16 c-0.04 0 -0.2 -0.04 -0.32 -0.08 c-0.24 0.88 -0.64 0.4 -0.76 0.64 c-0.24 -0.12 -0.08 -0.24 -0.24 -0.28 c-0.84 0.4 -0.6 0.36 -2.44 1.28 c-1.2 2.36 -0.56 -0.56 -1.88 3.04 l0 1.76 l0 -0.04 c0.04 0 0.2 1.56 0.56 1.76 c0.08 0.12 0.6 0.52 0.76 0.84 c0.28 0 0.64 1.04 1.8 1.04 c0.48 0.52 2.36 0.4 4.28 0.88 c0.56 0.16 3.48 0.16 4.16 0.96 l-0.04 0 c0 0.08 0.96 0.16 1.12 0.28 c0 -0.08 1.92 1.12 1.92 1.36 c0 0.04 0 0.04 -0.04 0.04 c0.68 0 1.36 1.52 1.64 1.72 c0.2 1.44 0.76 1 0.76 2.12 c0.48 1.52 0.4 1.88 0.4 3.76 c-0.12 0.12 -0.2 1.52 -0.4 1.6 c0 2.04 -1.04 1.92 -1.04 2.8 l-0.52 0.48 c0 0.08 -0.04 0.24 -0.04 0.24 c-0.8 0.72 -0.52 0.84 -0.88 1 c-0.12 0 -0.32 0.6 -1 0.8 c-0.76 1.16 -1.08 0.24 -1.88 1.4 c-3.6 0 0.08 0.88 -3.92 0.88 c-4.56 0 -2.96 -0.12 -4.44 -0.48 c-0.04 0 -0.04 0.04 -0.08 0.04 c-0.24 0 -0.6 -0.32 -0.92 -0.32 c0 -0.04 -0.6 -0.12 -0.6 -0.2 c0 0.04 0.04 0.04 0.04 0.04 c0 -0.04 -0.56 -0.84 -1 -0.84 c-0.08 0 -0.16 0.04 -0.24 0.08 z M12.48 40.28 c-0.04 0 -0.04 0.04 -0.04 0.08 c0 0 0 0.04 0.04 0.04 s0.04 -0.04 0.04 -0.04 c0 -0.04 0 -0.08 -0.04 -0.08 z M9.48 40.2 c-0.04 0 -0.04 0.04 -0.04 0.04 c0 0.04 0 0.04 0.04 0.04 s0.04 0 0.04 -0.04 c0 0 0 -0.04 -0.04 -0.04 z M13.28 40.2 c-0.04 0 -0.08 0.04 -0.08 0.08 s0.04 0.08 0.08 0.08 s0.04 -0.04 0.04 -0.08 s0 -0.08 -0.04 -0.08 z M12.4 40.12 c-0.04 0 -0.08 0.04 -0.08 0.08 s0.04 0.08 0.08 0.08 s0.04 -0.04 0.04 -0.08 s0 -0.08 -0.04 -0.08 z M13.28 40.04 c-0.08 0 -0.12 0 -0.12 0.04 l0.04 0.04 l0.08 0 l0 -0.08 z M10.36 40.04 c-0.04 0 -0.04 0 -0.04 0.04 c0 0 0 0.04 0.04 0.04 s0.04 -0.04 0.04 -0.04 c0 -0.04 0 -0.04 -0.04 -0.04 z M13.28 39.76 l0 0.2 c0.08 -0.04 0.16 -0.12 0.2 -0.2 l-0.2 0 z M14.36 39.64 c-0.36 0 -0.36 0.12 -0.36 0.24 c0.04 0 0.12 -0.04 0.2 -0.08 c0.04 0 0.16 0.04 0.24 0.08 l0.16 -0.08 s0 -0.16 -0.24 -0.16 z M9.6 39.68 l0 0.08 l0.16 0 l0 -0.08 l-0.16 0 z M11.6 39.68 c-0.04 0 -0.04 0.04 -0.04 0.08 c0 0 0 0.04 0.04 0.04 s0.04 -0.04 0.04 -0.04 c0 -0.04 0 -0.08 -0.04 -0.08 z M12.72 39.68 c-0.04 0 -0.08 0.04 -0.08 0.08 c0 0 0.04 0.04 0.08 0.04 s0.04 -0.04 0.04 -0.04 c0 -0.04 0 -0.08 -0.04 -0.08 z M9.04 39.44 c-0.04 0 -0.08 0 -0.08 0.04 l0.08 0 l0.04 0 c0 -0.04 0 -0.04 -0.04 -0.04 z M7.8 39.32 c-0.04 0 -0.08 0 -0.12 0.04 z M7.68 39.16 c-0.04 0 -0.08 0.04 -0.08 0.08 s0.04 0.08 0.08 0.08 s0.04 -0.04 0.04 -0.08 s0 -0.08 -0.04 -0.08 z M7.8 39.12 c-0.04 0 -0.04 0.04 -0.04 0.08 c0 0 0 0.04 0.04 0.04 s0.04 -0.04 0.04 -0.04 c0 -0.04 0 -0.08 -0.04 -0.08 z M2.08 39.04 c-0.04 0 -0.08 0.04 -0.08 0.08 c0 0 0.04 0.04 0.08 0.04 l0.04 -0.04 c0 -0.04 -0.04 -0.08 -0.04 -0.08 z M7.68 39.04 c-0.04 0 -0.08 0.04 -0.08 0.08 c0 0 0.04 0.04 0.08 0.04 s0.04 -0.04 0.04 -0.04 c0 -0.04 0 -0.08 -0.04 -0.08 z M1.52 38.92 c-0.04 0 -0.08 0.04 -0.08 0.04 c0 0.04 0.04 0.08 0.08 0.08 c0 0 0.04 -0.04 0.04 -0.08 z M8 38.96 l-0.08 0 c0 0.04 0 0.08 0.04 0.08 c0 0 0.04 -0.04 0.04 -0.08 z M15.84 38.92 c-0.04 0 -0.04 0.04 -0.04 0.04 l0.08 0 c0 0.04 0 -0.04 -0.04 -0.04 z M1.52 38.24 l0 -0.16 l0 0.16 z M17.68 38.16 c-0.04 0 -0.08 0.04 -0.08 0.08 l0.12 0 c0 -0.04 -0.04 -0.08 -0.04 -0.08 z M18.24 37.68 l0 0.08 l0.04 0 z M18.12 37.56 c-0.04 0 -0.08 0.04 -0.08 0.08 c0 0 0.04 0.04 0.08 0.04 s0.04 -0.04 0.04 -0.04 c0 -0.04 0 -0.08 -0.04 -0.08 z M18.36 37.6 l0.08 -0.04 z M18.6 37.36 l0 0 l-0.08 0.08 c0.04 -0.04 0.04 -0.08 0.08 -0.08 z M1.64 37.32 c-0.04 0 -0.08 0 -0.08 0.04 c0 0 0.08 0 0.08 -0.04 l0 0 z M1.52 36.92 l0 0.24 l0.04 0 c0 -0.04 0 -0.2 -0.04 -0.24 z M19.84 36.04 c-0.04 0 -0.04 0.04 -0.04 0.04 s0 0.04 0.04 0.04 s0.04 -0.04 0.04 -0.04 s0 -0.04 -0.04 -0.04 z M18.6 32.76 l0.08 0.04 l0.08 -0.04 l-0.16 0 z M1.52 32.12 l-0.08 0 c0 0.04 0 0.08 0.04 0.08 c0 0 0.04 -0.04 0.04 -0.08 z M21.44 31.439999999999998 l0 -0.04 c-0.04 0 -0.04 0 -0.04 0.04 s0 0.08 0.04 0.08 l0 -0.08 z M4.64 24.68 c-0.04 0 -0.08 0.04 -0.08 0.08 s0.04 0.08 0.08 0.08 s0.04 -0.04 0.04 -0.08 s0 -0.08 -0.04 -0.08 z M3 22.96 c-0.04 0 -0.08 0.04 -0.08 0.08 c0 0 0.04 0.04 0.08 0.04 l0.04 -0.04 c0 -0.04 -0.04 -0.08 -0.04 -0.08 z M15.84 22.56 c-0.04 0 -0.04 0.04 -0.04 0.08 c0 0 0 0.04 0.04 0.04 s0.04 -0.04 0.04 -0.04 c0 -0.04 0 -0.08 -0.04 -0.08 z M2.52 22.4 l0 0.08 l0.08 -0.08 l-0.08 0 z M6.32 22.04 c0 0 -0.04 0 -0.04 0.04 l0.08 0 c0 -0.04 -0.04 -0.04 -0.04 -0.04 z M10.28 21.52 c-0.08 0 -0.28 0.08 -0.28 0.12 s0.04 0.04 0.04 0.04 c0.08 0 0.16 -0.08 0.24 -0.16 z M1.76 20.36 c-0.04 0 -0.08 -0.04 -0.08 0.2 c0 0.04 0.04 0.12 0.04 0.12 c0.04 0 0.08 -0.08 0.08 -0.12 c0 -0.08 -0.04 -0.16 -0.04 -0.2 z M1.64 19.96 c-0.04 0 -0.08 0.04 -0.08 0.08 s0.04 0.08 0.08 0.08 l0 -0.16 z M18.76 12.920000000000002 c-0.04 0 -0.08 0.04 -0.08 0.08 c0 0 0.04 0.04 0.08 0.04 s0.04 -0.04 0.04 -0.04 c0 -0.04 0 -0.08 -0.04 -0.08 z M19.32 12.920000000000002 c-0.04 0 -0.04 0.04 -0.04 0.08 c0 0 0 0.04 0.04 0.04 s0.04 -0.04 0.04 -0.04 c0 -0.04 0 -0.08 -0.04 -0.08 z M19.48 12.920000000000002 c-0.04 0 -0.08 0.04 -0.08 0.08 c0 0 0.04 0.04 0.08 0.04 l0.04 -0.04 c0 -0.04 -0.04 -0.08 -0.04 -0.08 z M10.52 12.04 l0 -0.44 c0.04 -0.04 0.12 -0.08 0.16 -0.12 l0.08 0.08 c0 0.12 -0.16 0.32 -0.16 0.56 z M19.32 11.879999999999999 c-0.04 0 -0.04 0.04 -0.04 0.08 c0 0 0 0.04 0.04 0.04 s0.04 -0.04 0.04 -0.04 c0 -0.04 0 -0.08 -0.04 -0.08 z M6.2 11.68 c-0.2 0.04 -0.2 0.2 -0.2 0.2 c0.04 -0.04 0.2 -0.12 0.2 -0.16 l0 -0.04 z M5.24 11.48 c0 0.08 0.12 0.12 0.2 0.12 c-0.04 -0.12 -0.2 -0.12 -0.24 -0.12 l0.04 0 z M19.16 11.559999999999999 c0.04 0.04 0.08 0.04 0.12 0.04 c0.16 0 0.2 -0.12 0.2 -0.24 z M5.88 11.239999999999998 c-0.12 0 -0.08 0.12 -0.08 0.24 l0.08 0 l0 -0.24 z M13.8 10.879999999999999 c-0.12 0.2 -0.08 0.36 -0.08 0.52 c0.16 -0.04 0.2 -0.24 0.2 -0.44 c-0.04 -0.04 -0.04 -0.08 -0.12 -0.08 z M5.88 11.04 c-0.04 0 -0.08 0 -0.08 0.04 l0.08 0 l0.04 0 c0 -0.04 0 -0.04 -0.04 -0.04 z M18.76 10.96 c0 -0.04 -0.04 -0.04 -0.12 -0.04 c-0.04 0 -0.08 0 -0.08 0.04 s0.04 0.08 0.08 0.08 c0.08 0 0.12 -0.04 0.12 -0.08 z M18.92 10.84 c-0.04 0 -0.08 0.04 -0.08 0.04 l0.04 0 l0.04 0 l0 -0.04 z M14.96 10.84 l-0.04 -0.04 z M12.48 10.8 c0 -0.04 -0.04 -0.04 -0.04 -0.04 s-0.04 0 -0.04 0.04 s0.04 0.04 0.04 0.04 s0.04 0 0.04 -0.04 z M17.92 10.8 c0 -0.04 -0.04 -0.04 -0.04 -0.04 c-0.04 0 -0.04 0 -0.04 0.04 s0 0.04 0.04 0.04 c0 0 0.04 0 0.04 -0.04 z M18.44 10.719999999999999 c-0.04 0 -0.08 0.04 -0.08 0.08 c0 0 0.04 0.04 0.08 0.04 s0.04 -0.04 0.04 -0.04 c0 -0.04 0 -0.08 -0.04 -0.08 z M19.32 10.64 l0 0.16 l0.08 -0.08 z M7.16 10.32 c0 0.12 0.08 0.28 0.08 0.4 l0.08 -0.2 s-0.04 -0.16 -0.08 -0.28 z M14.2 10.48 c-0.04 0 -0.08 0.04 -0.08 0.04 s0.04 0.04 0.08 0.04 s0.04 -0.04 0.04 -0.04 s0 -0.04 -0.04 -0.04 z M18.56 10.239999999999998 c-0.12 0.04 -0.16 0.16 -0.2 0.28 c0.24 0 0.2 -0.12 0.2 -0.28 z M19.32 10.48 l0 0.04 l0.08 0 z M19.32 10.239999999999998 c-0.04 0 -0.04 0.04 -0.04 0.04 c0 0.04 0 0.04 0.04 0.04 s0.04 0 0.04 -0.04 c0 0 0 -0.04 -0.04 -0.04 z M10.96 10.079999999999998 c-0.04 0.12 0.2 0.16 0.2 0.16 c0.08 -0.12 0.48 0.04 0.44 -0.16 l-0.64 0 z M13.48 10.16 l-0.08 0 c0 0.04 0 0.08 0.04 0.08 c0 0 0.04 -0.04 0.04 -0.08 z M8.72 10 l0 0.08 l0.16 0 l0 -0.08 l-0.16 0 z M9.48 9.920000000000002 c-0.12 0 -0.28 0.12 -0.32 0.16 l0.32 0 l0 -0.16 z M12.48 10 l0 0.08 l0.24 0 z M36.275999999999996 40.2 c0 -0.08 0 -0.16 0.04 -0.24 c0 -0.08 -0.04 -0.16 -0.08 -0.16 c0 0.16 -0.2 0.32 -0.24 0.32 c-0.16 -0.16 -0.36 -0.32 -0.44 -0.52 c0 -1.32 3.64 -0.36 4.28 -1.04 l-0.08 -3.76 l0 -9.56 l0.08 -0.08 c0 -1.48 -0.16 -2.68 -0.16 -4 c0 -2.04 0.16 -5.4 0.16 -6.68 c0 -1.84 -0.04 -2.6 -0.52 -3.28 l-0.48 0 l0 0.16 c-2.32 0 -1.84 0.36 -2.76 0.76 c0.08 0 -1 0.12 -1 0.64 l0.04 0.04 c0 0.08 -0.92 0.08 -0.92 0.68 c-0.92 0 -1.92 2.52 -2.36 2.96 c0 0.36 -0.84 1.24 -0.84 2.04 l0 -0.04 s-0.04 1.52 -0.84 1.52 c-0.64 0 -0.88 0.04 -1.04 -0.44 c0 -3.16 0.48 -1.88 0.48 -9.12 c9.64 -0.48 19 -0.52 23.68 -0.52 c0.68 0 1.28 0.04 1.76 0.04 c0.2 0 0.76 -0.2 0.76 1.2 c0 0.32 0 0.24 -0.08 0.36 c0.16 0.76 -0.04 2.04 0.28 2.84 c-0.04 0.04 -0.12 0.4 -0.12 0.6 c0 0.64 0.36 2.4 0.36 3.88 c0 1 -0.32 1.04 -0.96 1.04 c-0.44 0 -1.28 -2.2 -1.48 -2.84 c0.36 0.04 -0.44 -0.04 -0.44 -0.8 c-0.92 -1.24 -0.6 -1.2 -1.36 -1.96 c-0.64 -1.28 -0.92 -0.8 -1.48 -1.4 l0 0.04 c0.04 0 -0.32 -0.76 -1.08 -0.76 c-0.04 -0.36 -0.48 -0.16 -0.64 -0.52 c-1.44 -0.08 -1.32 -0.48 -1.76 -0.48 l-0.12 0.04 c-0.84 0 -0.56 0 -0.8 -0.04 c-0.08 0 -0.16 0.04 -0.16 0.04 c0 0.04 0.04 0.08 0.04 0.08 c0 0.2 -0.44 0.08 -0.44 1 c0 1.48 0.12 5.16 0.12 9.24 l0 7.6 c0 0.08 -0.08 0.44 -0.08 0.48 c0 -0.04 0 0.2 0.08 0.32 c0 0.2 0.08 3.44 0.08 3.96 c0 1.04 -0.08 2.24 -0.08 3.04 c0 0.88 0.04 1.8 0.32 1.92 c1.96 0 2 -0.08 2.92 -0.08 c0.24 0 0.76 0.08 0.76 0.8 c0 0.28 -0.32 0.52 -0.56 0.68 c-0.36 0 -1.2 -0.32 -1.72 -0.32 c-0.24 0 -0.4 0.12 -0.56 0.12 c-0.32 -0.04 -0.64 -0.12 -0.88 -0.12 l-0.08 0.08 c-0.36 0 -0.8 0.12 -1 0.12 c-0.08 0 -0.2 -0.08 -0.32 -0.08 c-0.04 0 -0.16 0.04 -0.32 0.12 c-0.4 0 -0.84 0 -0.88 -0.12 l-2.08 0 s-0.08 0.12 -0.16 0.12 c0.16 -0.04 -0.24 0.12 -0.24 -0.12 c-0.32 0 -0.56 0.16 -0.96 0.16 c-0.28 0 -0.48 -0.04 -0.6 -0.2 l0.12 -0.08 l-0.68 0 c0 0.16 0 0.32 -0.08 0.4 l-0.08 -0.16 c-0.16 0 -0.16 0.2 -0.28 0.2 c-0.16 0 -0.4 -0.24 -0.44 -0.24 l0.16 -0.12 c0 -0.12 0 -0.16 -0.08 -0.2 l0 0.04 c-0.04 0 -0.08 -0.04 -0.16 -0.04 s-0.2 0.04 -0.24 0.2 l0.08 0.24 l-0.08 0.08 l-1.24 0 z M36.076 39.88 c-0.04 0 -0.08 0.04 -0.08 0.04 c0 0.04 0.04 0.04 0.08 0.04 s0.04 0 0.04 -0.04 c0 0 0 -0.04 -0.04 -0.04 z M39.636 39.8 c-0.04 0 -0.08 0.04 -0.08 0.08 s0.04 0.08 0.08 0.08 c0 0 0.04 -0.04 0.04 -0.08 s-0.04 -0.08 -0.04 -0.08 z M35.956 39.76 l0 0.04 l0.04 0 z M40.796 39.76 l-0.08 0.04 l0.16 0 z M40.396 39.76 c0 -0.04 -0.04 -0.04 -0.08 -0.04 s-0.08 0 -0.08 0.04 s0.04 0.04 0.08 0.04 s0.08 0 0.08 -0.04 z M41.275999999999996 39.76 l0 -0.04 c-0.04 0 -0.04 0 -0.04 0.04 s0 0.04 0.04 0.04 l0 -0.04 z M41.556 39.6 c-0.04 0 -0.08 0.04 -0.08 0.08 s0.04 0.08 0.08 0.08 s0.04 -0.04 0.04 -0.08 s0 -0.08 -0.04 -0.08 z M45.995999999999995 39.6 l0 0.08 l0.2 0 c-0.04 -0.08 -0.12 -0.08 -0.2 -0.08 z M48.076 39.6 l-0.08 0.08 l0.08 0 l0 -0.08 z M48.476 39.56 c-0.08 0 -0.08 0.08 -0.08 0.12 l0.08 0 l0 -0.12 z M35.876 39.36 c0 0.08 0 0.16 0.12 0.16 s0.24 -0.04 0.24 -0.08 c0 -0.28 -0.04 -0.2 -0.24 -0.32 c-0.12 0.08 -0.12 0.08 -0.12 0.24 z M37.196 39.36 c-0.08 0.04 -0.2 0.08 -0.2 0.12 s0.08 0.04 0.12 0.04 c0.08 0 0.12 0 0.12 -0.08 z M37.956 39.28 c-0.12 0.08 -0.08 0.16 -0.08 0.24 l0.4 0 c-0.08 -0.12 -0.28 -0.12 -0.32 -0.24 z M39.316 39.52 c0 -0.04 -0.04 -0.04 -0.08 -0.04 s-0.08 0 -0.08 0.04 s0.04 0.04 0.08 0.04 s0.08 0 0.08 -0.04 z M47.756 39.52 l0.04 -0.08 z M40.196 38 c0 0 -0.04 0.04 -0.04 0.08 s0.04 0.08 0.04 0.08 s0.04 -0.04 0.04 -0.08 s-0.04 -0.08 -0.04 -0.08 z M45.556 31.119999999999997 c-0.04 0 -0.08 0.04 -0.08 0.08 s0.04 0.08 0.08 0.08 s0.04 -0.04 0.04 -0.08 s0 -0.08 -0.04 -0.08 z M40.076 24.28 c-0.04 0 -0.08 0.04 -0.08 0.08 s0.04 0.08 0.08 0.08 s0.04 -0.04 0.04 -0.08 s0 -0.08 -0.04 -0.08 z M30.356 19.6 c-0.04 0 -0.08 0.04 -0.08 0.08 c0 0 0.04 0.04 0.08 0.04 s0.04 -0.04 0.04 -0.04 c0 -0.04 0 -0.08 -0.04 -0.08 z M55.796 19.2 c-0.32 0.04 -0.32 0.4 -0.32 0.48 c0.24 -0.24 0.32 -0.24 0.32 -0.48 z M30.476 19.08 l0 0.28 c0.04 -0.04 0.04 -0.2 0.04 -0.28 l-0.04 0 z M54.756 19.04 l0 0.04 l0.16 0 z M55.796 18.24 l0 0.08 l0.04 0 z M29.756 15.68 c0 0 -0.04 0.08 -0.04 0.16 l0.04 0.08 c0.04 0 0.04 -0.08 0.04 -0.12 s0 -0.08 -0.04 -0.12 z M55.316 15.8 l-0.04 0.04 c0 0.04 0.04 0.08 0.04 0.08 c0.04 0 0.04 -0.04 0.04 -0.08 c0 0 0 -0.04 -0.04 -0.04 z M29.756 15.48 c0 0 -0.04 0 -0.04 0.04 s0.04 0.08 0.04 0.08 c0.04 0 0.04 -0.04 0.04 -0.08 s0 -0.04 -0.04 -0.04 z M29.876 12.2 c-0.08 0.04 -0.12 0.08 -0.16 0.16 c0.16 0 0.16 -0.04 0.16 -0.16 z M34.596000000000004 11.879999999999999 c-0.04 0 -0.08 0 -0.08 0.04 s0.04 0.08 0.08 0.08 s0.04 -0.04 0.04 -0.08 s0 -0.04 -0.04 -0.04 z M34.756 11.48 c0 0 -0.04 0 0.08 0.12 c0.04 -0.04 0.08 -0.08 0.08 -0.12 l-0.16 0 z M35.956 11.280000000000001 c-0.04 0 -0.08 0.04 -0.08 0.08 s0.04 0.08 0.08 0.08 c0 0 0.04 -0.04 0.04 -0.08 s-0.04 -0.08 -0.04 -0.08 z M37.876 10.96 c0 0.04 -0.12 0.2 -0.2 0.24 l0.28 0 c0 -0.08 0.04 -0.16 -0.08 -0.24 z M39.556 10.96 l0 0.08 l0.08 -0.08 l-0.08 0 z M34.596000000000004 10.8 c-0.04 0 -0.08 0.04 -0.08 0.08 s0.04 0.08 0.08 0.08 s0.04 -0.04 0.04 -0.08 s0 -0.08 -0.04 -0.08 z M34.796 10.8 c-0.04 0.04 -0.04 0.04 -0.04 0.08 c0 -0.04 0.04 -0.08 0.04 -0.08 z M35.836 10.719999999999999 l0 0.16 l0.04 -0.08 z M36.876 10.8 c-0.04 0 -0.08 0.04 -0.08 0.04 c0 0.04 0.04 0.04 0.08 0.04 c0 0 0.04 0 0.04 -0.04 z M49.556 10.8 l0 0.08 s0.16 0.08 0.16 -0.08 l-0.16 0 z M29.756 10.8 l0.12 0 l-0.04 0 c0.12 0 0.28 -0.08 0.36 -0.08 c0 0.04 -0.08 -0.28 -0.16 -0.32 c-0.2 0 -0.2 0.28 -0.28 0.4 z M31.236 10.719999999999999 c-0.04 0 -0.04 0.04 -0.04 0.08 l0.08 0 c0 -0.04 0 -0.08 -0.04 -0.08 z M48.556 10.719999999999999 c0.08 0.08 0.16 0.08 0.24 0.08 c-0.04 -0.08 -0.12 -0.08 -0.24 -0.08 z M50.036 10.559999999999999 c-0.04 0 -0.04 0.04 -0.04 0.08 s0 0.08 0.04 0.08 s0.04 -0.04 0.04 -0.08 s0 -0.08 -0.04 -0.08 z M55.156 10.239999999999998 l0.08 0.08 l0 -0.08 l-0.08 0 z M63.552 39.36 c0.2 -0.56 0.32 -0.68 0.76 -0.68 c1.32 0 1.6 0.12 2.56 0.12 c0.36 0 0.52 -0.32 0.68 -0.52 l-0.08 -6.16 c0 -0.08 0.08 -0.2 0.08 -0.28 c0 0.04 -0.08 -0.56 -0.08 -0.72 c0 -0.04 -0.04 -0.8 0.08 -1.16 c0 -0.04 -0.08 -0.16 -0.08 -0.24 l0 -2.84 c0.08 -0.08 0.08 -0.2 0.08 -0.28 c0 -0.24 -0.08 -0.36 -0.08 -0.56 c0 0 -0.12 -9.6 -0.12 -12.72 l0.08 -0.16 l0 -1.88 c-0.28 -0.4 -1.2 -0.12 -1.32 -0.32 l-0.24 0.08 l0 0.04 c-0.08 0 -0.32 -0.12 -0.76 -0.12 c-0.08 0 -0.48 0.08 -0.56 0.16 c-0.64 0 -1.08 0.12 -1.08 -0.72 c0 -0.32 0.2 -0.76 1.52 -0.76 c0.16 0 0.52 0.08 0.76 0.08 c0.16 0 2.24 -0.08 2.28 -0.08 c0.28 0 0.76 0.12 0.92 0.12 c0.16 0.04 2.24 -0.16 3.2 -0.16 c0.12 0 0.08 0.36 0.36 0.36 c0 0 0.04 0 0.04 -0.04 s-0.04 -0.12 -0.04 -0.2 c0.44 0 0.88 -0.12 1.52 -0.24 c0.04 0.04 0.2 0.08 0.16 0.12 c0.04 0 0.12 -0.08 0.12 -0.16 c0.04 0 0.24 0.04 0.32 0.12 c0.2 -0.04 0.72 -0.16 0.76 -0.16 c1.56 0 1.64 0.72 1.64 1.12 c0 0.2 -0.28 0.6 -0.48 0.6 c-0.8 0 -2.32 -0.2 -2.68 -0.2 c-0.32 0 -0.48 0.52 -0.52 0.76 l0.04 13.4 c0 0.2 -0.04 0.76 -0.04 0.84 c0 0.04 0.04 -0.04 0.04 0.6 c0 1.4 -0.04 1.96 -0.04 2.72 c0 1.08 0.04 0.96 0.04 1.24 l0 4.64 c0 0.2 -0.12 3.36 0.48 3.48 c0.08 0 1.52 0.04 2.2 -0.04 l0.08 -0.08 l0.72 0 c0.44 0.2 0.52 0.6 0.52 0.76 c0 0.2 -0.32 0.68 -0.44 0.68 c-1.88 0 -4.76 0.12 -5.16 0.12 c0 0 -1.2 -0.08 -1.8 -0.08 c-1.76 0 -4 0.12 -5.28 0.12 c-1.04 0 -1.16 -0.32 -1.16 -0.72 z M64.392 39.84 c0 -0.04 -0.04 -0.04 -0.08 -0.04 s-0.08 0 -0.08 0.04 s0.04 0.08 0.08 0.08 s0.08 -0.04 0.08 -0.08 z M64.632 39.76 c0.16 0 0.24 0.08 0.4 0.08 c0.08 0 0.2 0 0.32 -0.08 c-0.28 0 -0.36 -0.28 -0.48 -0.32 c-0.04 0 -0.24 0 -0.24 0.24 l0 0.08 z M65.432 39.76 c-0.04 0 -0.08 0.04 -0.08 0.08 s0.04 0.08 0.08 0.08 c0 0 0.04 -0.04 0.04 -0.08 s-0.04 -0.08 -0.04 -0.08 z M66.432 39.68 l0.08 0.08 c0.2 0 0.24 0 0.32 -0.08 l-0.08 -0.04 c-0.36 0 -0.24 0 -0.32 0.04 z M75.032 39.36 c-0.24 0.08 -0.2 0.16 -0.2 0.4 c0.2 -0.08 0.16 -0.2 0.24 -0.4 l-0.04 0 z M76.392 39.36 c-0.28 0 -0.28 0.28 -0.32 0.4 l0.48 0 c0 -0.28 -0.08 -0.4 -0.16 -0.4 z M73.392 39.64 l-0.12 0.04 c0 0.04 0 0.04 0.04 0.04 z M73.872 39.68 l-0.08 -0.04 z M76.872 39.28 l0 0.24 c0.12 0.04 0.2 -0.16 0.2 -0.24 l-0.2 0 z M64.152 39.04 c-0.28 0 -0.28 0.28 -0.28 0.4 c0.16 -0.12 0.4 -0.08 0.44 -0.16 c0 -0.04 0.04 -0.24 -0.16 -0.24 z M67.152 39.32 l0.08 0.12 l0 -0.12 l-0.08 0 z M64.792 39.12 l0 0.08 l0.08 -0.08 l-0.08 0 z M75.992 39.04 c0 0.04 -0.04 0.04 -0.04 0.08 s0.04 0.04 0.12 0.08 l0.08 -0.08 l-0.08 -0.16 c-0.04 0 -0.08 0.04 -0.08 0.08 z M76.632 39.12 c0.04 0.08 0.12 0.08 0.2 0.08 c0 -0.04 -0.04 -0.12 -0.04 -0.2 z M67.992 38.6 c-0.04 0.04 -0.04 0.04 -0.04 0.08 s0.12 0.04 0.2 0.04 l0 -0.12 l-0.16 0 z M72.712 12.8 c-0.04 0 -0.08 0 -0.08 0.04 l0.08 0 l0.04 0 c0 -0.04 0 -0.04 -0.04 -0.04 z M74.752 10.64 c-0.04 0 -0.08 0.04 -0.08 0.08 s0.04 0.08 0.08 0.08 s0.04 -0.04 0.04 -0.08 s0 -0.08 -0.04 -0.08 z M63.752 10.280000000000001 c-0.04 0 -0.08 0.04 -0.08 0.08 c0 0 0.04 0.04 0.08 0.04 s0.04 -0.04 0.04 -0.04 c0 -0.04 0 -0.08 -0.04 -0.08 z M66.032 10.079999999999998 c-0.04 0 -0.08 0.04 -0.08 0.08 c0 0 0.04 0.04 0.08 0.04 l0 -0.12 z M66.592 10.079999999999998 c0 0.04 -0.04 0.04 -0.04 0.04 c0 0.04 0.04 0.04 0.12 0.08 l0 -0.12 l-0.08 0 z M64.072 10.04 c-0.16 0 -0.12 0.04 -0.12 0.12 c0.08 0 0.16 0 0.2 -0.08 z M92.028 40.12 l-4.12 -0.12 l-0.08 0.04 l0.16 -0.24 c-0.04 -0.04 -0.08 -0.08 -0.12 -0.08 c-0.08 0 -0.16 0.28 -0.28 0.4 l-2.36 0 c-0.16 -0.28 -0.4 -0.44 -0.4 -0.64 c0 -0.12 0.08 -0.28 0.08 -0.36 c0.16 -0.24 -0.24 -0.48 2.28 -0.48 c0.24 0 0.52 0.08 0.8 0.08 c0.4 0 0.8 -0.16 0.88 -0.84 c0 -1.36 -0.04 -2.56 -0.04 -3.96 c0 -0.72 0.04 -1.68 0.04 -2.48 c0 -1.72 0 -3.32 -0.12 -4.56 c0 -0.84 0.12 -2.96 0.12 -7 c0 -0.16 -0.04 -0.48 -0.04 -0.64 c0 -0.36 0.04 -0.4 0.04 -0.88 c0 -0.36 -0.08 -0.76 -0.08 -1.12 c0 -0.28 0.04 -0.48 0.08 -0.64 c0 -0.04 -0.04 -0.24 -0.04 -0.44 s0 -0.28 0.04 -0.44 l0 -4.44 l-0.24 -0.16 l-2.12 0 c-0.12 0.08 -0.36 0.08 -0.6 0.08 c-0.16 0 -0.44 0.04 -0.44 -0.04 c0 -0.04 -0.64 0.12 -0.64 -0.72 c0.24 -0.64 0.16 -0.56 0.64 -0.8 c4.92 0 4.48 0.08 5.8 0.08 c0.48 0 3.84 -0.08 4.76 -0.08 l0.24 0.08 l2.44 0 c0.36 0.12 0.36 0.36 0.48 0.64 c0 0.36 0.04 0.64 -0.48 0.76 c-0.48 0 -1.48 -0.08 -2.48 -0.08 c-1.56 0 -1.16 0.32 -1.44 0.88 l0 11 c0 0.12 -0.08 0.84 -0.08 0.96 c0 0.08 0.08 0.2 0.08 0.28 l0 2.32 c0 0.04 0.08 0.32 0.08 0.4 l-0.08 0.16 l0 6.76 c0 0.12 0.08 0.28 0.08 0.32 s-0.04 0.12 -0.08 0.28 l0 2.68 l-0.08 0.2 c0 1.12 0.12 1.24 0.64 1.44 c0.64 0 1.84 0.08 3 0.08 c1.48 0 2.88 -0.12 3.2 -0.56 c-0.08 0 0.88 -0.04 1.16 -0.44 c0.16 0.04 0.52 -0.72 1.12 -0.72 c1.04 -1.24 -0.2 0.2 1.56 -1.56 c-0.04 0 -0.08 0 -0.08 -0.04 c0 -0.12 0.84 -0.6 0.84 -1.04 c-0.08 0 1.12 -2 1.12 -2.36 c0 -1.24 0.72 -1.92 1.04 -2.08 c0.72 0.04 1.16 -0.56 1.16 1.56 c0 1.52 -0.2 3.52 -0.36 3.48 c0 0.08 0.04 0.2 0.12 0.32 c0 0.04 -0.16 1.08 -0.16 3.52 c0 0.96 -0.32 0.64 -0.6 1.24 c-2.24 0 -2.24 -0.12 -3.24 -0.12 c-0.48 0 -1.2 0.12 -1.4 0.12 l-2.68 -0.08 c-0.56 0 -1.24 -0.04 -1.56 -0.04 c0.04 0 -0.72 0.08 -1.16 0.08 c-0.2 0 -0.32 -0.04 -0.4 -0.16 c-0.04 0 -0.76 0.16 -0.84 0.2 c0 0 -0.04 -0.08 -0.4 -0.08 c-0.2 0 -0.76 0.08 -1.28 0.08 c-0.28 0 -0.32 -0.08 -0.56 -0.08 c-0.08 0 -1.56 0.16 -2.08 0.16 c-0.12 0 -0.72 -0.08 -0.84 -0.08 z M85.628 39.44 c-0.08 0 -0.08 0.48 -0.08 0.56 l0.08 0 l0 -0.56 z M86.94800000000001 39.44 c0 0.08 0.16 0.4 0.32 0.56 c0.08 -0.08 0.16 -0.44 0.2 -0.4 c0 -0.04 -0.24 -0.16 -0.44 -0.16 l-0.08 0 z M86.788 39.84 c-0.04 0 -0.04 0.04 -0.04 0.08 s0 0.08 0.04 0.08 s0.04 -0.04 0.04 -0.08 s0 -0.08 -0.04 -0.08 z M98.028 39.72 l0 0.08 l0.08 -0.08 l-0.08 0 z M98.868 39.6 c0 0.12 0.04 0.12 0.08 0.2 c0.2 0 0.16 -0.12 0.24 -0.28 c-0.12 0 -0.24 0 -0.32 0.08 z M99.348 39.6 l0 0.2 c0.16 0 0.16 -0.08 0.16 -0.2 l-0.16 0 z M99.94800000000001 39.6 l0 0.12 l0.08 0 l0 -0.12 l-0.08 0 z M96.988 39.6 l0 0.08 l0.08 0.04 z M85.22800000000001 39.44 c-0.08 0.04 -0.12 0.04 -0.12 0.04 c0 0.08 0.16 0 0.16 0.2 z M88.908 39.44 c-0.08 0.04 -0.2 0.04 -0.24 0.08 c0.16 0 0.24 -0.04 0.24 -0.08 z M102.708 39.36 c0 -0.04 0 -0.04 -0.04 -0.04 l0 0.12 c0.04 0 0.04 -0.04 0.04 -0.08 z M101.628 39.12 c-0.12 0 -0.08 0.08 -0.16 0.16 c0.16 0 0.16 -0.12 0.16 -0.16 z M103.348 39.04 c0.04 0.04 0.04 0.2 0.16 0.24 c0 -0.2 0 -0.24 -0.08 -0.32 z M85.268 39.04 l0.2 0.08 l0.08 -0.08 l-0.08 -0.08 c-0.16 0 -0.16 0 -0.2 0.08 z M108.908 34.72 c-0.04 0 -0.08 0.04 -0.08 0.04 c0 0.04 0.04 0.04 0.08 0.04 s0.04 0 0.04 -0.04 c0 0 0 -0.04 -0.04 -0.04 z M93.628 32.64 l0 0.2 l0.28 0 c0 -0.08 -0.12 -0.2 -0.2 -0.2 l-0.08 0 z M108.908 32.68 c-0.04 0 -0.08 0.04 -0.08 0.08 s0.04 0.08 0.08 0.08 s0.04 -0.04 0.04 -0.08 s0 -0.08 -0.04 -0.08 z M109.028 30.64 c0 0.2 0 0.4 0.04 0.56 l0.16 0 l0 -0.56 l-0.2 0 z M108.388 30.52 c0 0.04 0.04 0.16 0.08 0.2 c0.08 0 0.2 -0.04 0.2 -0.08 c0 -0.12 -0.04 -0.16 -0.16 -0.16 c-0.04 0 -0.08 0 -0.12 0.04 z M89.148 18.28 l0 0.08 l0.08 0 l0 -0.08 l-0.08 0 z M89.148 14.239999999999998 c0 -0.04 -0.04 -0.04 -0.04 -0.04 c-0.04 0 -0.04 0 -0.04 0.04 s0 0.04 0.04 0.04 c0 0 0.04 0 0.04 -0.04 z M86.348 10.8 l0 0.08 l0.16 0 c-0.12 -0.08 -0.16 -0.04 -0.16 -0.08 z M85.308 10.32 c-0.04 0 -0.04 0.32 -0.04 0.4 l0.04 -0.16 l0.28 0 c0 -0.16 -0.16 -0.24 -0.28 -0.24 z M86.108 10.36 c0.08 0.16 0.08 0.2 0.2 0.2 c0 -0.2 -0.12 -0.2 -0.2 -0.2 z M92.148 10.36 l0 0.08 l0.28 0 l0 -0.08 l-0.28 0 z M96.148 10.36 c0.04 0.08 0.12 0.12 0.16 0.12 s0.08 -0.04 0.12 -0.04 z M98.028 10.239999999999998 c0 0.16 0.8 0.2 0.84 0.2 c-0.12 -0.28 -0.32 -0.16 -0.52 -0.28 c-0.08 0 -0.24 0.08 -0.32 0.08 z M87.788 10.32 c0 0.08 0.04 0.04 0.24 0.04 l0 -0.12 s-0.16 0.04 -0.24 0.08 z M91.188 10.32 c-0.04 0 -0.08 0 -0.08 0.04 s0.04 0.08 0.08 0.08 s0.04 -0.04 0.04 -0.08 s0 -0.04 -0.04 -0.04 z M93.188 10.32 c0 0 -0.04 0 -0.04 0.04 s0.04 0.08 0.04 0.08 s0.04 -0.04 0.04 -0.08 s-0.04 -0.04 -0.04 -0.04 z M96.748 10.36 c0 -0.04 -0.04 -0.04 -0.08 -0.04 s-0.08 0 -0.08 0.04 s0.04 0.08 0.08 0.08 s0.08 -0.04 0.08 -0.08 z M141.57999999999998 39.84 c-0.08 0 -0.12 0.04 -0.16 0.04 l0.16 0.16 c-0.04 0 -0.16 0.12 -0.44 0.12 c-0.32 0 -0.56 -0.44 -0.56 -0.64 c0 -0.4 0.12 -0.52 1.8 -0.52 c0.76 0 2.08 -0.04 2.24 -0.32 c0 0 0.16 -1.2 0.24 -1.32 c0 0 -0.08 -1.68 -0.08 -1.84 c0 -0.04 0.08 -0.32 0.08 -0.44 c0 -0.08 0 -0.16 -0.08 -0.32 l0 -5.04 l0.08 -0.12 c0 -1.2 -0.16 -2.08 -0.16 -3.16 c0 -1 0.08 -1.6 0.08 -2.32 l0 -12.48 c-0.12 -0.12 -0.28 -0.56 -0.4 -0.56 c0.04 0 -1.4 0.16 -2.64 0.16 c-0.32 0 -1.2 0 -1.2 -0.4 l0 -0.64 c-0.04 -0.04 0.28 -0.24 0.88 -0.24 l9.4 0 c0.36 0 0.56 0.04 0.8 0.32 c-0.04 0.04 -0.04 0.08 -0.04 0.12 c0 0.28 0.4 0.52 0.4 1.08 c-0.04 0 -0.04 -0.04 -0.04 -0.04 c-0.04 0 -0.04 0.04 -0.04 0.04 c0 0.24 0.92 1.92 0.92 2.96 c0 0.8 0.52 1.24 0.52 1.88 c-0.04 0.04 -0.04 0.04 -0.04 0.08 c0 0.16 0.52 0.6 0.52 1.52 c-0.04 0.04 -0.04 0.04 -0.04 0.08 c0 0.08 0.32 0.2 0.32 0.92 c0 0.04 -0.04 0.04 -0.04 0.08 c0 0.16 0.36 0.24 0.36 1.08 c0.16 1.76 0.6 1.6 0.6 1.84 c0.04 1.2 0.84 1.52 0.84 3.04 c0 0.56 0.68 1.56 0.68 2.32 c0.44 0.76 -0.12 0.48 0.88 2.4 l0.4 0 c0.16 -1 0.92 -2 0.92 -2.76 c0.12 -2.12 0.96 -1.92 0.96 -3.44 l0 -0.04 c0 -0.2 0.6 -1.24 0.6 -1.96 c0 -1.04 0.44 -1.2 0.44 -1.68 l-0.08 0 c0 -0.04 0.4 -0.2 0.4 -0.88 c0.16 -3.16 1.24 -2.4 1.24 -4.16 c0.4 -3.96 1.28 -2.44 1.28 -4.48 c-0.04 0 -0.04 0 -0.04 -0.04 c0 -0.08 0.64 -0.36 1.52 -0.36 c0.2 0 1.8 0.08 2 0.08 c0.24 0 3.52 -0.08 5.64 -0.08 c0.76 0 1.56 0.32 1.52 0.32 l0 0.56 l-0.08 0.08 c-0.08 0 -0.32 0.24 -0.4 0.24 l-0.08 0.08 c-1.08 0 -1.92 -0.16 -2.48 -0.16 c-0.24 0 -0.6 -0.04 -0.84 0.64 l0 14.28 c0 0.08 0.08 0.52 0.08 0.64 c0 0.08 -0.08 0.72 -0.08 0.76 s-0.04 0.04 -0.04 0.08 s0.04 0.12 0.12 0.24 c0 7.24 -0.16 5.36 -0.16 8.88 c0 1.2 0.2 2.4 1.16 2.4 c0.2 0 0.44 -0.12 0.6 -0.12 l0.96 0 l0.04 0.04 c0.4 0 0.16 -0.04 0.68 -0.04 c0.48 0 0.6 0.56 0.6 0.64 c0 0.2 -0.08 0.44 -0.36 0.44 c-0.32 0 -0.36 0.08 -0.36 0.08 c-0.16 0 -1.04 -0.08 -1.16 -0.08 c-1.92 0 -2.72 0.12 -4 0.12 c-0.36 0 -0.88 -0.12 -1.36 -0.12 c-1 0 -1.08 0.08 -1.48 0.08 c-0.8 0 -2.04 -0.12 -2.12 -0.12 c0 0.12 -1.52 0.12 -1.68 0.12 c-0.64 0 -0.64 -0.04 -0.84 -0.12 l0.12 -0.08 c0 -0.08 -0.08 -0.24 -0.12 -0.36 c-0.08 0.04 -0.08 0.12 -0.08 0.2 l0 0.16 c-0.16 0 -0.24 0 -0.24 -0.04 l0 -0.56 c0.32 -0.12 0.6 -0.32 0.72 -0.36 l1.52 0 c0.08 0.04 0 0.04 0.28 0.04 c0.04 0 0.08 0 0.08 -0.08 l0.8 0 c0 0.04 0.04 0.04 0.08 0.04 c0.2 0 0.52 -1 0.52 -3.4 c0 -3.12 -0.08 -3.96 -0.08 -5.6 c0 -0.04 0 -0.08 0.08 -0.2 c0 0.12 -0.2 -6.96 -0.2 -9.2 c-0.04 0.04 -0.04 0.08 -0.04 0.08 l0 0 s0.2 -1.76 0.2 -4.4 c0 -1.2 -0.08 -2.24 -0.48 -2.24 c0 -0.04 0.04 -0.04 0.04 -0.04 c-0.6 0 -0.56 2.08 -1.28 3.4 c0.04 0 0.04 0.04 0.04 0.08 c0 0.2 -0.44 0.76 -0.44 1.2 c0 0.04 0.04 0.08 0.04 0.12 c-0.12 -0.04 -0.08 0.72 -0.4 1.04 c0 2.08 -1.08 2.28 -1.08 3.84 c-0.28 1.2 -0.6 0.92 -0.6 2.04 c-0.08 0.84 -1.04 2.36 -1.04 2.96 c0 1.28 -0.48 0.6 -0.48 1.88 l0.04 0 c0 0.12 -0.56 0.92 -0.56 1.76 c0 2 -1.36 2.72 -1.36 4.28 c0 1.04 -0.64 1.64 -0.64 2.2 c0 0.08 -0.08 1.52 -1 1.52 c-0.84 0 -1.48 -1.84 -1.48 -2.8 c-0.32 -1.4 -0.44 -1.76 -1.08 -3.64 c-0.28 -1.36 -0.84 -1.8 -0.84 -2.52 c0 -0.56 -0.6 -1.28 -0.6 -1.8 c-0.08 -1.12 -0.12 0.08 -1.12 -3.88 c0 0 -0.24 -1.16 -0.4 -1.28 l0 -0.28 s0 -0.08 0.04 -0.12 c0.04 0.04 0.16 0.08 0.2 0.08 s0.04 0 0.04 -0.04 s-0.04 -0.12 -0.08 -0.16 c-0.08 0 -0.16 0 -0.24 0.04 c-0.12 -0.08 -0.56 -0.96 -0.56 -1.52 c-0.08 -1.48 -0.92 -2.88 -1.32 -4.28 l0 0.04 c-0.08 0 -0.92 -4.44 -1.44 -4.44 c-0.4 0 -0.32 0.04 -0.36 0.16 l0 3.44 c0 0.08 0.04 0.32 0.04 0.4 c0 0.32 -0.16 0.28 -0.16 0.44 c0 0.12 0.12 0.4 0.12 1.2 l-0.04 0.04 s0.04 0 0.04 0.08 c0 0.04 0 0.12 -0.08 0.28 c0 -0.04 0.08 1.48 0.08 1.64 c0 0.36 -0.08 1.36 -0.08 2.72 c0 0.72 0.08 3.2 0.08 3.36 c0 0.04 -0.04 0.12 -0.08 0.2 c0.08 0.24 0.08 0.36 0.08 0.72 c0 0.28 0 0.6 -0.08 0.6 c0 0.08 0.04 0.16 0.08 0.24 c0 1.24 -0.12 2 -0.12 2.44 c0 0.48 0.12 1.8 0.12 1.8 c0 0.96 -0.12 1.8 -0.12 3.28 c0 1.2 0.16 2.44 1.12 2.44 c1.24 0 2.04 -0.12 2.04 -0.2 c0.8 0 1.08 0.36 1.08 0.76 c0 0.12 -0.16 0.52 -0.76 0.52 c-0.4 0 -0.36 -0.08 -0.56 -0.24 c-0.12 0 -0.24 0.12 -0.36 0.12 s-0.12 -0.12 -0.2 -0.2 c-0.28 0.2 -0.2 0.32 -0.44 0.32 l0 -0.2 c-0.24 0 0 0.16 -0.88 0.16 c-0.04 0 -0.16 -0.04 -0.24 -0.08 c-0.04 0 -1.2 0.12 -2.04 0.12 l-0.2 -0.04 c0.24 -0.12 0.56 -0.12 0.64 -0.2 c-0.48 0 -0.8 0.04 -1.28 0.04 c0.04 0.08 0.32 0.16 0.52 0.16 l-0.2 0 c-0.2 0 -0.44 0.04 -0.56 0.2 l-0.16 -0.08 l-0.72 0 l-0.04 0.08 l-0.56 0 c-0.16 -0.12 -0.44 -0.16 -0.56 -0.2 c0 -0.2 -0.08 -0.2 -0.08 -0.2 z M141.89999999999998 39.96 c-0.04 0 -0.08 0.04 -0.08 0.04 c0 0.04 0.04 0.04 0.08 0.04 c0 0 0.04 0 0.04 -0.04 z M149.26 39.88 l0.08 0.08 l0.16 -0.08 l-0.24 0 z M143.42 39.84 l0 0.04 l0.04 -0.04 l-0.04 0 z M146.45999999999998 39.88 l0.04 0 l-0.04 0 z M146.7 39.76 c-0.04 0 -0.04 0.04 -0.04 0.08 s0 0.04 0.04 0.04 s0.04 0 0.04 -0.04 s0 -0.08 -0.04 -0.08 z M141.42 39.16 c-0.52 0 -0.56 0.2 -0.56 0.4 l0 0.2 c0.28 -0.12 0.2 -0.4 0.4 -0.44 l0.48 0 l0 -0.08 c-0.04 0 -0.28 -0.08 -0.32 -0.08 z M142.45999999999998 39.56 l-0.08 0.08 l0.08 0 l0 -0.08 z M173.5 39.16 l0.44 0.48 c0.04 -0.2 0.04 -0.32 0.08 -0.32 l0 0.2 l-0.08 0.12 c0 -0.4 -0.52 -0.36 -0.52 -0.4 s0 -0.04 0.08 -0.08 z M149.82 39.16 c-0.2 0.04 -0.24 0.08 -0.24 0.24 l0.32 -0.08 c0 -0.08 -0.04 -0.16 -0.08 -0.16 z M155.45999999999998 39.08 c0.04 0.08 0.2 0.2 0.32 0.32 c0.08 -0.04 0.12 -0.24 0.16 -0.24 c0 -0.08 -0.12 -0.08 -0.28 -0.08 l-0.2 0 z M172.45999999999998 39.24 l0.12 0.16 l0.12 -0.16 l-0.24 0 z M155.98 38.84 c-0.04 0 -0.04 0.04 -0.04 0.08 s0 0.08 0.04 0.08 s0.04 -0.04 0.04 -0.08 s0 -0.08 -0.04 -0.08 z M145.17999999999998 33.519999999999996 l0 0.08 l0.04 0 z M150.17999999999998 24.32 l0 0.08 l0.08 0 l0 -0.08 l-0.08 0 z M150.14 24 c-0.04 0 -0.08 0.04 -0.08 0.04 c0 0.04 0.04 0.08 0.08 0.08 c0 0 0.04 -0.04 0.04 -0.08 z M145.82 19.56 c-0.04 0 -0.08 0.04 -0.08 0.08 c0 0 0.04 0.04 0.08 0.04 l0.04 -0.04 c0 -0.04 -0.04 -0.08 -0.04 -0.08 z M169.42 16.32 c0 0.12 0 0.16 0.16 0.16 c-0.08 -0.08 -0.12 -0.16 -0.16 -0.16 l0 0 z M170.01999999999998 16.32 c-0.08 0.04 -0.12 0.08 -0.12 0.12 s0 0.04 0.04 0.04 s0.04 -0.08 0.08 -0.16 z M163.05999999999997 13.84 c-0.04 0 -0.08 0 -0.08 0.04 l0.08 0 l0.04 0 c0 -0.04 0 -0.04 -0.04 -0.04 z M163.77999999999997 11.32 c0.04 0.08 0.08 0.12 0.12 0.16 c0.04 0 0.12 0.04 0.12 -0.16 c0 -0.12 0 -0.24 -0.08 -0.24 c-0.12 0 -0.12 0.24 -0.16 0.24 z M141.42 10.84 c0 0.16 0.08 0.2 0.2 0.24 l0.04 -0.08 c-0.04 -0.08 -0.12 -0.12 -0.24 -0.16 z M140.98 10.760000000000002 c-0.04 0 -0.08 0.04 -0.08 0.04 c0 0.04 0.04 0.04 0.08 0.04 c0 0 0.04 0 0.04 -0.04 z M172.57999999999998 10.68 l0 0.04 l0.08 0 z M140.89999999999998 10.52 l0.08 0.16 s0.24 -0.32 0.28 -0.48 c-0.2 0 -0.36 0.04 -0.36 0.32 z M141.42 10.399999999999999 c-0.04 0 -0.08 0.04 -0.08 0.08 c0 0 0.04 0.04 0.08 0.04 s0.04 -0.04 0.04 -0.04 c0 -0.04 0 -0.08 -0.04 -0.08 z M142.98 10.399999999999999 l0 0.08 l0.08 -0.08 l-0.08 0 z M170.54 10.399999999999999 c-0.04 0 -0.08 0.04 -0.08 0.08 c0 0 0.04 0.04 0.08 0.04 l0.04 -0.04 c0 -0.04 -0.04 -0.08 -0.04 -0.08 z M172.65999999999997 10.399999999999999 c-0.04 0 -0.08 0.04 -0.08 0.08 c0 0 0.04 0.04 0.08 0.04 l0.04 -0.04 c0 -0.04 -0.04 -0.08 -0.04 -0.08 z M165.17999999999998 10.280000000000001 l0.08 0.12 c0.12 0 0.12 -0.04 0.12 -0.08 c0 0 0 -0.04 -0.04 -0.12 c-0.12 0 -0.12 0.04 -0.16 0.08 z M166.1 10.2 l0 0.2 l0.12 0 l0 -0.2 l-0.12 0 z M170.45999999999998 10.399999999999999 c0 -0.04 -0.04 -0.04 -0.04 -0.04 l0 0.12 s0.04 -0.04 0.04 -0.08 z M170.66 10.280000000000001 l-0.08 0.08 l0.08 0 l0 -0.08 z M171.14 10.280000000000001 c-0.04 0 -0.08 0.04 -0.08 0.08 c0 0 0.04 0.04 0.08 0.04 l0 -0.12 z M173.33999999999997 10.2 l0 0.16 l0.08 0 l0 -0.16 l-0.08 0 z M172.85999999999999 10.2 l-0.04 -0.04 c-0.04 0 -0.04 0.04 -0.04 0.04 c0 0.04 0 0.08 0.04 0.08 c0 0 0.04 -0.04 0.04 -0.08 z M190.81599999999997 38.92 l0.08 -0.08 c0 -0.04 0 -0.04 -0.08 -0.08 l0 0 l-0.04 0 c-0.04 0 -0.08 0 -0.12 0.08 l0 -0.04 s-0.04 0.08 -0.2 0.08 s-0.4 -0.04 -0.72 -0.28 c0 0.04 -0.04 0.04 -0.04 0.04 c-0.08 0 -0.4 -0.44 -0.52 -0.44 c-0.2 0 -0.76 -0.16 -3.24 -2.64 l0 -0.16 c-0.48 -0.24 -1 -0.92 -1.16 -1.24 c-0.08 -1.56 -1.24 -0.44 -1.24 -2.4 c-0.04 0 -0.12 0.08 -0.12 0.08 c0.04 0 0.04 0 0.04 -0.04 c0 -0.12 -0.96 -0.84 -0.96 -1.68 c-0.24 -1.8 -0.4 -1.08 -0.4 -2.32 l-0.08 -0.08 c0 -0.4 -0.12 -1.24 -0.32 -1.6 l0.04 -2.88 l0.12 -1.64 c0.04 -0.52 0.36 -0.76 0.4 -2.36 l0 0.04 c0.04 0 0.36 -1.4 0.64 -1.68 l-0.04 0.04 c-0.04 0 0.8 -1.08 0.8 -1.36 c0 -0.32 1.04 -0.88 1.04 -1.64 c0.4 -0.36 0 -0.16 1.72 -1.84 c0.44 0 0.28 -0.72 0.72 -0.72 l-0.04 -0.08 c0.12 0 0.4 -0.24 0.84 -0.68 c1.28 -0.84 -0.8 0.08 3.4 -1.88 c0 0 0.04 0.04 0.08 0.04 c0.44 0 1.36 -0.6 2 -0.6 c0.88 0 3.6 -0.16 3.96 -0.16 c1.4 0 1.8 0.52 2.2 0.52 c1.48 0.12 1.88 1.16 2.44 1.16 c0.04 0 0.04 -0.04 0.16 -0.04 c0.16 0 0.52 0.16 1.48 1.12 c0 0.28 0.48 0.28 0.64 0.52 l-0.08 0.08 c0.2 0.08 0.96 0.64 1.28 1.28 c0 0.12 0.72 0.36 0.72 0.76 c-0.04 0 -0.04 0 -0.04 0.04 c0 0.12 1 0.8 1 1.24 c-0.04 0 -0.08 0 -0.08 0.04 c0 0.12 0.8 0.6 0.8 1.2 c0.12 1.08 1.04 1.4 1.04 2.32 c-0.04 0.04 -0.04 0.08 -0.04 0.12 c0 0.32 0.68 0.92 0.68 2.2 c0 1.6 0.32 2.72 0.32 2.96 c0 0.68 -0.4 1.88 -0.4 3.36 c-0.32 1.8 -1.84 5.16 -2.24 5.44 c-0.08 0 -0.48 1 -0.84 1.16 c0 -0.04 -1.4 2.08 -2.32 2.44 c-0.6 0.4 -0.36 0.52 -2.44 1.96 c-0.08 0.12 -0.8 0.04 -1.2 0.4 c-3.44 1.16 -3.36 0.92 -3.6 1.16 l-2.76 0 c-0.12 0 -0.48 -0.2 -0.68 -0.2 c-0.08 0 -1 -0.52 -1.6 -0.52 c-0.8 0 -0.64 -0.48 -1 -0.52 z M195.77599999999998 39.76 c0 0 -0.04 0.04 -0.04 0.08 l0.04 0.04 c0.04 0 0.04 -0.04 0.04 -0.04 c0 -0.04 0 -0.08 -0.04 -0.08 z M196.93599999999998 39.76 c0 0.04 -0.04 0.04 -0.04 0.04 c0 0.04 0.04 0.04 0.12 0.08 l0.08 -0.12 l-0.16 0 z M197.21599999999998 39.68 c-0.04 0 -0.08 0.04 -0.08 0.08 s0.04 0.08 0.08 0.08 l0 -0.16 z M193.016 39.56 c0 -0.04 -0.04 -0.04 -0.04 -0.04 c-0.04 0 -0.04 0 -0.04 0.04 s0 0.08 0.04 0.08 c0 0 0.04 -0.04 0.04 -0.08 z M192.896 39.44 c-0.04 0 -0.08 0.04 -0.08 0.04 c0 0.04 0.04 0.08 0.08 0.08 l0 -0.12 z M195.77599999999998 39.44 l-0.04 0.04 l0.08 0 s0 -0.04 -0.04 -0.04 z M196.856 39.4 c0 0 -0.04 0.04 -0.04 0.08 l0.08 0 c0 -0.04 0 -0.08 -0.04 -0.08 z M194.33599999999998 39.32 c-0.04 0 -0.08 0.04 -0.08 0.08 c0 0 0.04 0.04 0.08 0.04 l0 -0.12 z M197.016 39.32 c-0.04 0 -0.08 0.04 -0.08 0.08 c0 0 0.04 0.04 0.08 0.04 s0.04 -0.04 0.04 -0.04 c0 -0.04 0 -0.08 -0.04 -0.08 z M198.49599999999998 39 c-0.04 0 -0.08 0.04 -0.08 0.08 c0 0 0.04 0.04 0.08 0.04 s0.04 -0.04 0.04 -0.04 c0 -0.04 0 -0.08 -0.04 -0.08 z M188.61599999999999 32.72 c0.12 0.4 0.28 0.6 0.28 1.12 c0 0.6 0.64 1.12 0.64 1.88 c0.52 0.8 -0.36 -0.08 1.6 1.92 c0.04 0 0.04 -0.04 0.04 -0.04 c0.12 0 0 0.48 0.88 0.48 c-0.04 0 1 0.68 2.36 0.68 l1.56 0 c1.76 0 3.16 -0.12 4.48 -1.44 c-0.04 0 1 -0.76 1.08 -1.16 c0 0.04 0 0.08 0.04 0.08 c0.16 0 0.92 -1.92 0.92 -2.64 c0 -3.56 0.64 -5.68 0.64 -6.24 c0 -0.12 -0.08 -0.52 -0.08 -0.92 c0 -1.24 0.08 -1.68 0.08 -2.2 c0 -0.12 -0.16 -1.32 -0.16 -1.4 c0 0 -0.04 0 -0.04 -0.04 c0 -0.12 0.16 -0.52 0.16 -1.64 c0 -0.12 -0.16 -0.4 -0.16 -1.32 c0 -3.36 -0.6 -4.36 -0.68 -5.64 l-0.04 0.04 c-0.12 0 0.08 -0.76 -0.44 -1.28 c-1.16 -1.16 -1.12 -1.56 -1.32 -1.64 c-0.08 0 -0.56 -0.48 -0.64 -0.48 c0 0.04 0 0.12 -0.04 0.12 c-0.16 0 -1.08 -0.96 -2.08 -0.96 c-0.92 0 -1.6 -0.24 -2.28 -0.24 c-1.48 0 -2.84 1 -3.68 1 c-0.68 0.16 -1.2 0.72 -1.8 1.76 c-0.04 0.08 -0.92 0.72 -0.92 1.92 c0 0.04 0.04 0.04 0.04 0.08 c0 0.16 -0.44 0.4 -0.44 2.04 c-0.08 2.28 -0.4 -0.76 -0.4 5.44 l0 3.8 c0 1.28 0.08 1.96 0.08 4.04 l0.08 0.12 c0 0.56 0.08 1.6 0.24 1.6 l0 1.16 z M201.25599999999997 38.4 l0 0.04 l0.08 0 z M188.856 37.68 c-0.04 0 -0.08 0.04 -0.08 0.04 c0 0.04 0.04 0.04 0.08 0.04 c0 0 0.04 0 0.04 -0.04 z M188.77599999999998 37.56 c-0.04 0 -0.08 0.04 -0.08 0.08 s0.04 0.04 0.08 0.04 s0.04 0 0.04 -0.04 s0 -0.08 -0.04 -0.08 z M189.09599999999998 36.48 l0 0.08 l0.08 0 l0 -0.08 l-0.08 0 z M185.736 34.92 c0.04 0.04 -0.04 0.08 0.12 0.08 c-0.04 -0.08 -0.12 -0.08 -0.12 -0.08 z M184.136 32.72 c-0.04 0 -0.08 0.04 -0.08 0.08 s0.04 0.08 0.08 0.08 s0.04 -0.04 0.04 -0.08 s0 -0.08 -0.04 -0.08 z M182.016 25.08 c0.04 0.04 0.04 0.08 0.08 0.08 l0.04 -0.04 z M205.49599999999998 14.32 l0 -0.04 c-0.04 0 -0.04 0 -0.04 0.04 s0 0.04 0.04 0.04 l0 -0.04 z M203.696 12.239999999999998 c0 0 -0.04 0.04 -0.04 0.08 s0.04 0.08 0.04 0.08 c0.04 0 0.04 -0.04 0.04 -0.08 s0 -0.08 -0.04 -0.08 z M189.09599999999998 11.16 c-0.12 0 -0.16 0 -0.24 0.08 l0.24 0 l0 -0.08 z M190.736 10.32 l-0.04 0 c0 0.04 0 0.08 0.04 0.08 l0 -0.08 z M198.296 9.68 c-0.16 0 -0.4 0.04 -0.52 0.08 l0 0.04 c0.12 0 0.52 0.04 0.52 -0.08 l0 -0.04 z M194.416 9.48 l-0.04 0.04 c0 0.04 0.12 0.08 0.2 0.08 l0 -0.32 c-0.16 0 -0.16 0.08 -0.16 0.2 z M198.896 9.559999999999999 c-0.04 0 -0.08 0.04 -0.08 0.04 c0 0.04 0.04 0.08 0.08 0.08 c0 0 0.04 -0.04 0.04 -0.08 z M193.016 9.559999999999999 c0 -0.04 -0.08 -0.04 -0.12 -0.04 s-0.12 0 -0.12 0.04 s0.04 0.04 0.12 0.04 c0 0 0.08 0 0.12 -0.04 z M193.33599999999998 9.48 l0 0.08 l0.12 0 l0 -0.08 l-0.12 0 z M195.33599999999998 9.239999999999998 c-0.04 0 -0.28 0.16 -0.44 0.24 l0.04 0.04 c0.16 0 0.4 -0.16 0.4 -0.28 z M197.136 9.239999999999998 l0 0.12 l0.08 0 l0 -0.12 l-0.08 0 z M217.332 39.36 c0 -0.52 0.2 -0.28 0.44 -0.44 c0.28 0 0.76 0.04 1.28 0.04 c1.04 0 2.28 -0.12 2.4 -0.88 c0 -0.76 -0.12 -0.68 -0.12 -1.68 c0 -0.36 0.04 -3.4 0.04 -3.8 c0 -0.52 -0.04 -1.44 -0.04 -2.44 l0 -12.96 c0 -0.04 0.04 -0.4 0.04 -0.44 s-0.04 -0.12 -0.04 -0.56 l0 -4.16 c-0.08 -0.24 -0.08 -0.84 -0.32 -0.84 c-1.08 0 -2.8 0.12 -2.96 0.12 c-0.32 0 -0.76 -0.08 -0.76 -0.56 c0 -0.92 0.44 -0.88 0.56 -1 l2.32 0.04 s0.72 0.04 0.96 0.04 c0.12 0 0.36 -0.04 0.8 -0.04 l3.72 0 c0.08 0 0.28 -0.08 0.36 -0.08 s0.28 0.08 0.48 0.08 l6.28 -0.04 c0.36 0.04 1.32 0.32 2.4 0.32 c-0.04 0 -0.04 -0.04 -0.04 -0.04 c0.08 0 0.76 0.44 1.48 0.44 c0.12 0 1.56 0.04 1.56 0.6 c0 -0.04 0 -0.08 0.12 -0.08 c0.2 0 0.8 0.2 2.36 1.2 l0 0.08 c0.08 0.32 1.28 0.76 1.76 1.44 c0.04 0.48 1.4 1.44 1.4 1.76 c-0.04 0.04 -0.04 0.04 -0.04 0.08 l0 -0.04 c0.12 0 1 1.56 1.52 3.12 c-0.04 0 -0.04 0.04 -0.04 0.04 c0 0.24 0.92 1.48 0.92 3.36 c0.12 0.64 0.24 3.36 0.24 3.8 c0 0.28 -0.16 0.96 -0.16 1.48 c0 0 -0.32 1.52 -0.32 1.68 l-0.04 -0.04 c-0.12 0 0 1.48 -0.48 1.96 c-0.2 0 0.16 0.88 -0.64 1.68 c-0.12 0.08 -0.32 0.32 -0.32 0.84 c-1.44 2.48 -1.44 1.52 -1.96 2.6 c0 0.28 -0.32 0.24 -0.56 0.4 c-0.64 1.08 -1.76 1.52 -3.52 2.4 c-0.6 0 -1.68 0.76 -2.68 0.84 c0 0.04 -4.44 0.32 -6.48 0.32 c-0.48 0 -1 -0.04 -1.48 -0.04 c-0.24 0 -5.16 0.04 -7 0.08 c-0.16 0 -0.6 -0.04 -1.24 -0.04 c-0.68 0 -0.76 0.2 -1.52 0.2 c-0.36 -0.04 -0.68 -0.24 -0.68 -0.84 z M217.772 39.8 c0.2 0.08 0.32 0.08 0.4 0.08 c0.24 0 0.2 0 0.24 -0.08 l-0.64 0 z M219.53199999999998 39.88 c0 -0.04 -0.04 -0.04 -0.04 -0.04 c-0.04 0 -0.04 0 -0.04 0.04 s0 0.08 0.04 0.08 c0 0 0.04 -0.04 0.04 -0.08 z M220.052 39.8 c-0.04 0 -0.08 0.04 -0.08 0.08 s0.04 0.08 0.08 0.08 s0.04 -0.04 0.04 -0.08 s0 -0.08 -0.04 -0.08 z M230.492 39.72 c-0.04 0 -0.08 0.04 -0.08 0.08 s0.04 0.08 0.08 0.08 s0.04 -0.04 0.04 -0.08 s0 -0.08 -0.04 -0.08 z M231.132 39.8 c0 -0.04 -0.04 -0.04 -0.04 -0.04 c-0.04 0 -0.04 0 -0.04 0.04 s0 0.08 0.04 0.08 c0 0 0.04 -0.04 0.04 -0.08 z M218.492 39.24 c-0.12 0.04 -0.12 0.16 -0.12 0.24 c0.08 -0.04 0.12 -0.16 0.12 -0.24 z M217.732 39.16 c0 0.12 0.04 0.12 0.2 0.2 l-0.04 0.04 c0.08 0 0.32 -0.16 0.28 -0.28 c-0.12 0 -0.44 0 -0.44 0.04 l0 0 z M218.37199999999999 39.16 c-0.04 0 -0.04 0.04 -0.04 0.08 s0 0.04 0.04 0.04 l0 -0.12 z M227.25199999999998 37.28 c0.12 0.92 0.08 1.56 0.52 1.56 l2.72 0 c0.08 0 0.16 -0.04 0.24 -0.04 c0 0 0.28 0.04 0.52 0.04 c0.6 0 1.48 -0.04 1.8 -0.2 c-0.32 -0.24 0.36 0.32 1.2 -0.32 c1.88 -0.12 1.16 -0.4 1.88 -0.76 c0.12 0 0.96 -0.48 1.12 -0.84 c0 -0.32 0.64 -0.48 0.68 -0.64 c-0.04 -0.04 -0.08 -0.08 -0.08 -0.12 c0 -0.24 0.68 -0.4 0.68 -1.04 c-0.04 -0.04 -0.04 -0.04 -0.04 -0.08 c0 -0.16 0.4 -0.28 0.4 -1 l0 0.04 c0.12 0 0.92 -3.28 0.92 -4.96 c0 -0.04 -0.04 -0.64 -0.04 -1.28 s0.04 -1.28 0.2 -1.4 c0 -0.08 -0.08 -0.48 -0.08 -0.56 c0 0 0.08 -0.8 0.08 -0.88 c0 -10.8 -2.76 -11.48 -3.84 -12.6 c-0.8 0 -0.96 -0.72 -2.12 -0.72 c-2.16 -0.12 -3.2 -0.28 -6.28 -0.28 c-0.6 1.52 -0.08 3.08 -0.52 3.92 c0 0.08 0.12 0.28 0.12 1.24 c0 0.48 0 0.44 -0.08 0.6 l0 2.12 c0 0.04 0.08 0.32 0.08 0.4 c-0.04 0.04 -0.08 0.16 -0.08 0.16 c0 0.08 0.08 0.56 0.08 0.88 l-0.08 0.08 c0 0.04 0.08 0.4 0.08 0.52 l0 4.64 c0 0.08 0.04 0.4 0.04 0.48 c0 0.64 -0.12 2.48 -0.12 3.84 c0 0.32 0.08 0.6 0.08 0.72 c0 0.4 -0.08 0.88 -0.08 1.28 c0 0.52 0.04 1.56 0.12 1.56 c0 0.04 -0.04 0.68 -0.04 0.76 c0 0.04 -0.04 0.04 -0.04 0.08 s0.08 0.16 0.08 0.4 c0 0.08 0 0.48 -0.12 2.4 z M221.69199999999998 37.12 c-0.04 0 -0.04 0 -0.04 0.04 s0 0.08 0.04 0.08 s0.04 -0.04 0.04 -0.08 s0 -0.04 -0.04 -0.04 z M240.612 30.880000000000003 l0 0.04 l0.04 0 z M225.932 19.4 l-0.08 0.08 l0.08 0 l0 -0.08 z M221.69199999999998 16.12 c-0.08 0.16 -0.04 0.48 -0.04 0.64 z M221.852 15.920000000000002 c-0.04 0 -0.08 0.04 -0.08 0.08 c0 0 0.04 0.04 0.08 0.04 s0.04 -0.04 0.04 -0.04 c0 -0.04 0 -0.08 -0.04 -0.08 z M240.052 13.52 l-0.04 -0.04 c-0.04 0 -0.04 0.04 -0.04 0.04 c0 0.04 0 0.08 0.04 0.08 c0 0 0.04 -0.04 0.04 -0.08 z M240.332 13.52 c0 0 -0.04 -0.04 -0.08 -0.04 l-0.04 0.04 c0 0.04 0.04 0.08 0.04 0.08 c0.04 0 0.08 -0.04 0.08 -0.08 z M234.172 10.559999999999999 c0 0.16 0.08 0.2 0.12 0.2 s0.04 -0.04 0.04 -0.04 c0 -0.12 -0.16 -0.24 -0.32 -0.24 c-0.08 0.04 -0.32 -0.04 -0.4 0.08 l0.56 0 z M219.732 10.48 c-0.04 0 -0.08 0.04 -0.08 0.08 s0.04 0.08 0.08 0.08 s0.04 -0.04 0.04 -0.08 s0 -0.08 -0.04 -0.08 z M228.052 10.48 c-0.12 0 -0.12 0.04 -0.16 0.08 l0.16 -0.08 l0 0 z M232.41199999999998 10.48 l-0.44 0 l0 0.08 c0.2 0 0.56 0.04 0.64 -0.08 l-0.2 0 z M232.932 10.48 c0 -0.04 -0.04 -0.04 -0.04 -0.04 c-0.04 0 -0.04 0 -0.04 0.04 l0.08 0 z M253.96799999999996 39.44 l0 -0.2 l0.48 -0.48 l1.96 0 l0.16 0.08 l0.92 0.08 c0.16 0.08 0.36 -0.52 0.48 -0.52 l0 -4.84 c0 -0.04 -0.08 -0.52 -0.08 -0.56 c0 0 0.08 -0.96 0.08 -1.16 c0.08 -0.12 -0.12 0.16 -0.12 -0.64 c0 -0.08 0.12 -0.16 0.12 -0.32 c0 -0.28 -0.08 -0.44 -0.08 -0.64 c0 -0.08 0.08 -0.36 0.08 -0.52 l0 -2.52 c0 -0.36 -0.12 -1 -0.12 -1.48 l0.04 -3.44 c-0.04 -0.16 -0.04 -1.2 -0.04 -1.4 c0 -0.12 0.04 -1.04 0.04 -1.16 c0 -0.04 -0.04 -2.08 -0.04 -2.32 c0 -2.48 0.04 -2.92 0.04 -4 c0 -0.48 0 -1.52 -0.04 -1.84 l-0.24 -0.28 s-0.8 -0.04 -1.12 -0.04 c-0.52 0 -0.92 0.12 -1.4 0.12 c-0.44 -0.08 -0.88 0.24 -1.28 -0.68 c0 -0.36 0.08 -0.8 0.44 -0.88 c8.16 0 9 0.08 12.24 0.08 c7.76 0 7.32 -0.08 10.56 -0.08 c0.4 0 0.84 7.32 0.84 7.68 c0 0.04 0.04 0.04 0.04 0.08 c0 0.48 -0.72 0.84 -0.96 0.84 c-0.52 0 -0.8 -0.56 -0.96 -1.2 c0.16 0 -1.72 -3.08 -1.64 -2.92 c-0.52 -0.52 -0.56 -0.6 -0.88 -1 c0 -0.36 -1.72 -1.16 -1.92 -1.44 c0 0.04 -0.04 0.04 -0.04 0.04 c-0.12 0 -0.24 -0.48 -1.08 -0.48 c-1.12 0 -1.04 -0.16 -2.76 -0.16 l0 -0.08 l-1.24 0 l-0.08 0.08 l-0.52 0 l0.28 -0.08 c-0.92 0 -1.32 -0.12 -1.56 -0.12 c-0.36 0 -0.8 0.2 -0.8 1.36 c0 2.24 0.08 3.44 0.08 4 c0 0.6 -0.08 2.36 -0.08 2.6 c0 0.68 0.16 1.24 0.16 1.72 c-0.08 0 -0.16 0.28 -0.16 0.4 s0.16 0.88 0.16 1.24 c0 0.08 -0.08 0.2 -0.08 0.24 c0 0.12 -0.12 1.64 0.28 1.64 c0.92 0 1.6 -0.24 2.32 -0.24 l0 0.04 c0.12 0 0.48 -0.6 0.76 -0.6 c0.48 0 0.56 -0.16 1.08 -0.68 l0 0.04 c-0.04 0 0.68 -1.44 1.08 -1.92 c0.68 -0.32 -0.24 -2 1.76 -2 l0.12 0.08 c0 0.36 0.2 0.48 0.2 1.6 c-0.04 0.32 -0.08 1.36 -0.08 1.28 c0 0.44 0.08 1.12 0.08 1.68 c0 0.48 0 0.48 -0.08 0.72 c0 0.4 0.08 0.92 0.08 1.04 c0 0.52 -0.08 0.52 -0.08 0.92 c0 0.32 0.08 2.48 0.08 2.76 c0 0.16 -0.08 0.32 -0.08 0.56 l0 1.48 c0.04 0.04 -0.32 0.32 -0.52 0.32 c-1.28 0 -0.2 -0.24 -1.64 -2.84 c-1.12 -1.96 -1.48 -1.88 -2.12 -2.44 c0.04 0 -1.16 -0.4 -1.44 -0.4 l-0.12 -0.2 l-1.28 -0.04 c-0.6 0.32 -0.52 2 -0.52 1.36 c0 0.16 0.12 0.56 0.12 1.16 c0 0.28 -0.04 0.76 -0.12 1.2 c0 0.04 0.12 0.4 0.12 0.64 c0 0.4 -0.08 0.36 -0.08 0.52 c0 0.28 0.08 0.44 0.08 0.56 c-0.12 1.56 -0.16 4.36 -0.16 4.84 c0 2.52 -0.04 2.72 0.56 3.32 l1.72 0 c0.16 -0.04 0.36 -0.16 0.52 -0.16 c0.04 0 2.4 0.08 2.72 0.08 s0.04 -0.2 0.88 -0.2 c1.52 -0.6 1.44 -0.08 2.72 -1.08 c-0.04 0 -0.04 -0.04 -0.04 -0.04 c0 -0.12 1 -0.56 1.52 -1.2 c-0.04 0 -0.04 -0.04 -0.04 -0.04 c0 -0.6 1.76 -1.04 1.76 -2.48 c0 -0.16 0.72 -1.08 0.72 -1.32 c1 -2.52 0.36 -2.4 1.64 -2.4 c0.04 0 0.48 0 0.48 0.52 c0 2.6 -0.4 5.8 -0.4 7.6 c0 0.28 0.04 0.56 0.04 0.84 c0 0.48 -0.16 0.88 -1.12 0.88 l-15.4 0 c-2.32 0 -3.16 0.08 -7.44 0.08 c-0.76 -0.24 -0.56 -0.56 -0.56 -0.64 z M254.36799999999997 39.6 l0 -0.04 l0 0.12 c0 0.12 0.04 0.28 0.4 0.28 c0.08 0 0.2 0 0.32 -0.04 l0 -0.08 l-0.32 -0.36 c-0.04 0.08 -0.08 0.16 -0.16 0.2 c-0.04 0 -0.16 -0.04 -0.24 -0.12 l0 0.04 z M268.568 39.76 l0.04 0.08 c0.04 -0.04 0.04 -0.04 0.04 -0.16 z M267.008 39.68 c-0.12 0 -0.16 0 -0.2 0.08 l0.2 0 l0 -0.08 z M255.76799999999997 39.24 c0.08 0 0.24 0.08 0.28 0.08 c0.36 0 0.24 0 0.36 -0.08 c-0.08 0 -0.36 -0.08 -0.4 -0.08 c-0.16 0 -0.16 0 -0.24 0.08 z M277.72799999999995 39.24 c0.04 0.12 0.16 0.08 0.24 0.08 c-0.04 -0.08 -0.12 -0.08 -0.24 -0.08 z M258.84799999999996 39.24 c0 -0.04 -0.04 -0.04 -0.08 -0.04 s-0.08 0 -0.08 0.04 s0.04 0.08 0.08 0.08 s0.08 -0.04 0.08 -0.08 z M254.60799999999998 39.12 l0 0.04 l0.4 0 c-0.08 -0.04 -0.32 -0.04 -0.4 -0.04 z M258.28799999999995 33.8 l-0.04 -0.04 c-0.04 0 -0.04 0.04 -0.04 0.04 c0 0.04 0 0.08 0.04 0.08 c0 0 0.04 -0.04 0.04 -0.08 z M258.20799999999997 32.08 l0 0.16 c0.04 0 0.04 -0.04 0.04 -0.08 s0 -0.08 -0.04 -0.08 z M258.28799999999995 31.84 c0.04 0.08 0.12 0.08 0.24 0.08 c0 -0.08 0.04 -0.32 -0.08 -0.4 c0 0.08 -0.16 0.2 -0.16 0.32 z M258.52799999999996 31.08 c0 0.04 0 0.08 0.04 0.12 l0.04 -0.12 l-0.08 0 z M278.52799999999996 31.08 c-0.04 0 -0.08 0.04 -0.08 0.08 c0 0 0.04 0.04 0.08 0.04 s0.04 -0.04 0.04 -0.04 c0 -0.04 0 -0.08 -0.04 -0.08 z M278.72799999999995 31 c-0.04 0 -0.04 0.04 -0.04 0.08 c0 0 0 0.04 0.04 0.04 l0 -0.12 z M258.28799999999995 24.96 c-0.04 0 -0.08 0.04 -0.08 0.08 c0 0 0.04 0.04 0.08 0.04 s0.04 -0.04 0.04 -0.04 c0 -0.04 0 -0.08 -0.04 -0.08 z M258.568 24.96 c0 -0.04 0 -0.04 -0.04 -0.04 l0 0.08 c0.04 0 0.04 0 0.04 -0.04 z M258.28799999999995 23.2 l-0.04 -0.04 c-0.04 0 -0.04 0.04 -0.04 0.04 c0 0.04 0 0.08 0.04 0.08 c0 0 0.04 -0.04 0.04 -0.08 z M271.048 19.84 c0 -0.04 -0.04 -0.04 -0.08 -0.04 c0 0 -0.04 0 -0.04 0.04 s0.04 0.08 0.04 0.08 c0.04 0 0.08 -0.04 0.08 -0.08 z M276.72799999999995 17.92 c-0.04 0 -0.08 0.04 -0.08 0.08 c0 0 0.04 0.04 0.08 0.04 s0.04 -0.04 0.04 -0.04 c0 -0.04 0 -0.08 -0.04 -0.08 z M262.808 15.920000000000002 c-0.04 0.04 -0.04 0.12 -0.04 0.16 l0.44 0 c-0.04 -0.08 -0.2 -0.16 -0.4 -0.16 z M258.20799999999997 14.36 l0 0.16 c0.04 0 0.04 -0.04 0.04 -0.08 s0 -0.08 -0.04 -0.08 z M258.20799999999997 12.32 l0 0.16 c0.04 0 0.04 -0.04 0.04 -0.08 s0 -0.08 -0.04 -0.08 z M277.128 10.84 l0 0.4 l0.04 -0.2 c0 -0.08 0 -0.12 -0.04 -0.2 z M256.808 11.079999999999998 c-0.04 0 -0.04 0.04 -0.04 0.08 s0 0.08 0.04 0.08 s0.04 -0.04 0.04 -0.08 s0 -0.08 -0.04 -0.08 z M260.16799999999995 11.16 c0 -0.04 -0.04 -0.04 -0.04 -0.04 c-0.04 0 -0.04 0 -0.04 0.04 s0 0.08 0.04 0.08 c0 0 0.04 -0.04 0.04 -0.08 z M255.688 10.760000000000002 c-0.36 0 -0.16 0.28 -0.28 0.32 c0.24 0 0.28 -0.04 0.28 -0.12 c0 -0.04 -0.04 -0.08 -0.04 -0.12 s0.04 -0.04 0.04 -0.08 z M256.64799999999997 10.96 l0.12 0.08 l0.04 -0.08 l-0.08 -0.04 z M254.88799999999998 10.84 c-0.04 0 -0.04 0.04 -0.04 0.08 c0 0 0 0.04 0.04 0.04 s0.04 -0.04 0.04 -0.04 c0 -0.04 0 -0.08 -0.04 -0.08 z M255.28799999999998 10.68 l-0.28 0.08 l0.28 0 l0 -0.08 z M258.84799999999996 10.68 c-0.04 0 -0.08 0.04 -0.08 0.04 c0 0.04 0.04 0.04 0.08 0.04 c0 0 0.04 0 0.04 -0.04 z M262.888 10.68 l0 0.08 l0.04 0 z M255.48799999999997 10.68 l-0.08 0 c0 0.04 0 0.08 0.04 0.08 c0 0 0.04 -0.04 0.04 -0.08 z M256.40799999999996 10.64 c-0.08 0 -0.08 0.08 -0.08 0.08 c0.04 0 0.04 -0.04 0.08 -0.08 z M258.128 10.68 l-0.08 0 c0 0.04 0 0.08 0.04 0.08 c0 0 0.04 -0.04 0.04 -0.08 z M264.64799999999997 10.64 c-0.08 0 -0.16 0.04 -0.24 0.04 l0.28 0 z M254.28799999999998 10.64 c0 0 0 -0.04 -0.04 -0.04 l0 0.08 c0.04 0 0.04 0 0.04 -0.04 z M266.368 10.52 c0 0.16 0.04 0.08 0.08 0.12 c0 0 0.04 0 0.08 -0.04 l-0.08 -0.16 z M276.96799999999996 10.120000000000001 l0 0.48 l0.08 0 c0 -0.12 0.04 -0.48 -0.08 -0.48 z M255.92799999999997 10.2 c-0.04 0 -0.08 0.04 -0.08 0.04 c0 0.04 0.04 0.04 0.08 0.04 s0.04 0 0.04 -0.04 c0 0 0 -0.04 -0.04 -0.04 z M254.60799999999998 10.2 l-0.04 -0.08 z M255.08799999999997 10.04 c-0.08 0.04 -0.12 0.08 -0.12 0.12 l0.04 0.04 l0.08 0 l0 -0.16 z M286.924 39.64 l0 -0.2 c0.08 -0.08 -0.04 -0.76 0.84 -0.76 c0.68 0 0.8 0.04 1.16 0.04 c0.8 0 1.4 -0.04 1.52 -0.24 l0 -3.4 c0 -0.08 -0.04 -0.36 -0.04 -0.4 l-0.04 0.04 c-0.08 -0.08 0.08 0.36 0.08 -1.08 c0 -3 -0.04 -4.12 -0.04 -5.12 c0 -0.64 0 -1.88 0.08 -2.92 c0 -0.08 -0.16 -0.6 -0.16 -1.6 c0 -0.48 0.12 -0.48 0.12 -0.72 c0 -0.64 -0.04 -1.24 -0.04 -1.72 c0 -0.84 0.04 -1.48 0.04 -2.4 c0 -0.24 0.6 -0.2 0.72 -0.32 c0 0 0 -0.2 -0.36 -0.2 c0 0 -0.12 0 -0.24 0.16 c-0.04 0 -0.08 -0.04 -0.12 -0.16 l0 -6.76 c0 -0.52 -0.12 -0.84 -0.64 -0.84 c-0.76 0 -0.92 0.12 -2.28 0.12 c-1.08 0 -0.44 -0.16 -1.04 -0.52 c0 -0.96 3 -0.68 3.84 -0.8 l-0.12 0 c0 0.04 2.32 0.16 2.32 0.16 c0.08 0 0.16 0.04 0.24 0.04 c0.48 0 0.68 -0.2 1.04 -0.2 c0.16 0 0.32 0.04 0.52 0.04 c0.12 0 0.44 -0.04 0.64 -0.04 c0.48 0 1.92 0.04 2.36 0.04 c0.32 0 0.56 -0.12 1.2 -0.12 c0.2 0 3.68 0.08 4.12 0.08 c0.8 0 2.12 0.4 3.2 0.4 c1.52 0.16 0.6 0.36 2.12 0.72 c-0.04 0 -0.08 -0.04 -0.08 -0.04 c0 0.04 1.12 0.64 1.12 0.76 c0.48 0.12 1.2 1.12 1.56 1.44 l-0.04 -0.04 s1.08 1.52 1.08 2.88 c0 1.48 0 1.56 -0.32 2.56 c0 0.68 -0.92 1.88 -2.52 3.24 c-0.2 -0.08 -0.44 0.68 -1.16 0.68 c0.12 -0.4 -0.2 0.52 -1.32 0.6 c-0.04 -0.04 -0.08 -0.04 -0.08 -0.04 c-0.2 0 -0.48 0.36 -0.64 0.36 c-1.52 0.4 -2.2 0.24 -2.2 0.84 c0 0 -0.08 0.32 0.24 0.32 c0.44 -0.08 1.16 0.64 1.4 0.64 c0.84 0 1 0.76 1.68 0.76 c0.72 0.32 1 0.56 1.88 1.48 c0.88 2.6 1.56 1.2 1.56 3.16 c0 1.08 0.36 1.84 0.36 2.92 c0 0.16 -0.08 0.84 -0.08 2.24 c0.08 0.52 0.12 1.56 0.28 1.72 l0 -0.08 c0 0.04 -0.12 1.32 1.28 1.32 c0.96 0 1.4 -0.12 1.68 -0.12 c0 0 0.04 0.04 0.08 0.04 c0.08 0 0.28 -0.08 0.44 -0.08 s0.32 0.04 0.4 0.2 l-0.28 0 c0 0.2 0.12 0.2 0.12 0.28 c0.08 -0.04 0.12 -0.12 0.16 -0.12 l0.04 0 l0 0.52 c-0.12 0 -0.12 -0.12 -0.12 -0.28 c-0.08 0.04 -0.12 0.04 -0.32 0.12 c0 0.08 0.04 0.16 0.32 0.28 c-0.16 0.08 -0.2 0.28 -0.4 0.28 l0 -0.04 s-0.2 0.4 -1.4 0.4 c-0.44 0 -3.16 -0.16 -3.88 -0.2 c0 0.04 0 0.04 -0.04 0.04 c-0.32 0 -1.08 -0.8 -1.72 -0.8 l0.04 0 c0 -0.16 -1.8 -1 -1.84 -1.76 l0.04 0.04 c0 -0.04 -0.4 -0.4 -0.4 -0.52 c0 -0.08 0.04 -0.32 0.04 -0.56 c0 -0.12 -0.12 -0.12 -0.32 -0.2 c-0.28 -6.52 -0.88 -8.32 -1.48 -9.2 c-0.12 0.44 0.16 -0.48 -0.76 -0.92 c0 -0.28 -1.24 -0.72 -1.2 -0.88 c-0.08 0 -0.16 0.04 -0.2 0.04 c-0.84 0 -0.8 -0.8 -2.16 -0.8 l-2.16 0 c-0.44 0.92 -0.44 2.08 -0.44 2.64 c0 0.12 0 1.04 0.08 1.12 c0 0.04 -0.04 0.16 -0.12 0.56 c0 0.12 0.08 0.6 0.08 0.92 l0 -0.04 c0 0.24 -0.04 1.12 -0.04 1.4 c0 0.52 0.04 0.64 0.04 1 l0 4.64 c0 0.08 0.08 0.32 0.08 0.4 c0 0.12 -0.08 0.36 -0.08 0.52 c0 0.52 0.08 0.6 0.08 0.8 c-0.04 0.04 -0.08 0.04 -0.08 0.08 c0 0.12 0.56 0.2 1.64 0.2 c0.04 0 0.84 -0.08 0.88 -0.08 c1.12 0 1.12 0.08 1.36 0.4 c0 0.72 -0.16 0.84 -0.28 0.84 c-0.04 0 -0.08 -0.04 -0.16 -0.2 c-0.2 0 -0.24 0 -0.24 0.04 c0.32 0.36 -3.88 0.36 -4.32 0.36 l0.08 0 s-1.36 -0.04 -1.88 -0.16 c-1.6 0.16 -4.36 0 -5.48 0.4 c-0.48 0 -0.92 0 -0.92 -0.64 z M311.604 39.88 c-0.04 0 -0.08 0.04 -0.08 0.08 s0.04 0.08 0.08 0.08 c0 0 0.04 -0.04 0.04 -0.08 s-0.04 -0.08 -0.04 -0.08 z M312.68399999999997 39.52 c-0.28 0 -0.2 0.16 -0.32 0.36 c0 0 0.04 0.04 0.08 0.04 c0.12 0 0.24 -0.2 0.24 -0.4 z M289.00399999999996 39.76 c-0.08 0 -0.2 0 -0.28 0.04 c0.08 0 0.2 0 0.28 -0.04 z M289.084 39.76 l0 0.04 l0.08 0 z M290.524 39.8 l-0.04 -0.04 c-0.04 0 -0.04 0.04 -0.04 0.04 c0 0.04 0 0.08 0.04 0.08 c0 0 0.04 -0.04 0.04 -0.08 z M291.284 39.72 c-0.04 0.04 -0.08 0.04 -0.08 0.08 c0.04 0 0.12 0 0.16 -0.04 z M297.484 39.64 l0 0.12 l0.24 0 c-0.08 -0.08 -0.12 -0.12 -0.24 -0.12 z M299.044 39.72 c-0.04 0 -0.08 0.04 -0.08 0.04 s0.04 0.04 0.08 0.04 s0.04 -0.04 0.04 -0.04 s0 -0.04 -0.04 -0.04 z M312.844 39.4 c-0.04 0.12 0.16 0.32 0.16 0.36 c0.2 0 0.2 0 0.32 -0.04 c-0.12 -0.36 0 -0.44 -0.32 -0.6 c-0.12 0.08 -0.16 0.04 -0.16 0.28 z M296.924 39.64 l-0.08 0.08 l0.08 0 l0 -0.08 z M299.604 38.92 c0 0.36 0.24 0.36 0.24 0.64 l0.08 0 l0 -0.44 c-0.04 -0.08 -0.12 -0.16 -0.32 -0.2 z M287.604 39 l0 0.12 c0 -0.04 0.04 0.36 0.28 0.36 c0.04 0 0.12 -0.08 0.2 -0.16 c-0.04 0.04 -0.32 -0.32 -0.44 -0.32 l-0.04 0 z M288.284 39.4 c0 -0.04 -0.04 -0.04 -0.04 -0.04 c-0.04 0 -0.04 0 -0.04 0.04 c0 0 0 0.04 0.04 0.04 z M297.00399999999996 39.32 c-0.04 0 -0.04 0.04 -0.04 0.04 c0 0.04 0 0.04 0.04 0.04 s0.04 0 0.04 -0.04 c0 0 0 -0.04 -0.04 -0.04 z M298.24399999999997 39.2 l0 0.2 c0.08 -0.04 0.16 -0.08 0.2 -0.16 c-0.08 -0.04 -0.12 -0.04 -0.2 -0.04 z M287.604 38.72 c-0.04 0 -0.04 0.04 -0.04 0.08 s0 0.08 0.04 0.08 s0.04 -0.04 0.04 -0.08 s0 -0.08 -0.04 -0.08 z M306.044 37.68 c0.04 0.08 0.08 0.2 0.08 0.2 c0.04 0 0.04 0 0.04 -0.04 l0 -0.16 l-0.12 0 z M294.88399999999996 36.6 l0.16 0.08 c0.08 -0.04 0.08 -0.12 0.08 -0.2 c-0.12 0 -0.16 0.04 -0.24 0.12 z M304.364 35 c0.04 0 0.04 0.04 0.04 0.08 c0 0 0 0.04 -0.04 0.04 s-0.04 -0.04 -0.04 -0.04 c0 -0.04 0 -0.08 0.04 -0.08 z M304.844 34.96 c0.04 0.04 0.08 0.04 0.16 0.04 c-0.08 -0.04 -0.12 -0.04 -0.16 -0.04 z M290.964 30.8 c-0.04 0 -0.08 0.04 -0.08 0.08 s0.04 0.08 0.08 0.08 s0.04 -0.04 0.04 -0.08 s0 -0.08 -0.04 -0.08 z M290.644 29.759999999999998 c-0.04 0 -0.08 0.04 -0.08 0.08 s0.04 0.08 0.08 0.08 s0.04 -0.04 0.04 -0.08 s0 -0.08 -0.04 -0.08 z M304.00399999999996 24.96 c-0.04 0 -0.08 0.04 -0.08 0.04 c0 0.04 0.04 0.08 0.08 0.08 c0 0 0.04 -0.04 0.04 -0.08 z M294.44399999999996 24.28 l0 0.16 l0.04 0.04 c0.12 0 0.28 -0.16 0.28 -0.2 l-0.32 0 z M294.524 23.88 c0 0.04 -0.04 0.04 -0.04 0.04 c0 0.04 0.04 0.04 0.16 0.04 c0 0 0.04 0 0.12 -0.04 c-0.04 -0.12 0 -0.16 -0.12 -0.32 c-0.04 0 -0.16 0.24 -0.12 0.28 z M296.20399999999995 20.44 l0 2.04 c0 0.68 0.4 0.8 0.76 1 c6.36 -0.16 6.36 -1.04 6.96 -1.64 c-0.04 0 -0.04 -0.04 -0.04 -0.04 c0 -0.2 0.6 -0.6 0.6 -0.88 l-0.04 0 c0 -0.16 0.84 -1.48 0.84 -3.2 c0 -4.08 -1.12 -4.84 -1.28 -5.68 c0 -0.04 -1.2 -1.08 -2.6 -1.08 c-0.88 0 -1.08 0.08 -1.4 0.08 l-3 0 c-0.84 0 -0.52 0.4 -0.76 0.84 l0 3.16 l0.08 0.2 c0 1.56 -0.16 3 -0.16 4.4 c0 0.08 0 0.2 0.12 0.32 c0 0.08 -0.08 0.2 -0.08 0.48 z M290.964 19.56 c-0.04 0 -0.08 0.04 -0.08 0.04 l0.08 0 l0.04 0 s0 -0.04 -0.04 -0.04 z M290.844 19.36 c-0.04 0 -0.04 0.04 -0.04 0.08 c0 0 0 0.04 0.04 0.04 l0.04 -0.04 c0 -0.04 -0.04 -0.08 -0.04 -0.08 z M290.964 19.16 c-0.04 0 -0.08 0.04 -0.08 0.08 c0 0 0.04 0.04 0.08 0.04 s0.04 -0.04 0.04 -0.04 c0 -0.04 0 -0.08 -0.04 -0.08 z M290.644 16.84 l0 0.2 l0.08 0 c0 -0.08 0 -0.16 -0.08 -0.2 z M308.68399999999997 12.2 c0.04 0.08 0.16 0.08 0.2 0.08 l0 -0.24 c-0.12 0 -0.2 0 -0.2 0.16 z M305.644 10.84 c-0.04 0 -0.08 0.04 -0.08 0.08 s0.04 0.04 0.08 0.04 s0.04 0 0.04 -0.04 s0 -0.08 -0.04 -0.08 z M289.084 10.559999999999999 c0.08 0.04 0.16 0.04 0.24 0.04 l-0.16 -0.12 z M292.964 10.559999999999999 l0 -0.04 c-0.04 0 -0.04 0 -0.04 0.04 s0 0.04 0.04 0.04 l0 -0.04 z M302.32399999999996 10.48 l0.16 0.08 c0.2 0 0.2 -0.08 0.2 -0.28 c0 -0.04 -0.04 -0.04 -0.2 -0.04 c-0.08 0 -0.16 0 -0.16 0.24 z M298.24399999999997 10.239999999999998 c0 0.08 -0.04 0.24 0.08 0.24 c0.04 -0.04 0.08 -0.16 0.12 -0.24 l-0.2 0 z M303.844 10.399999999999999 c-0.04 0 -0.08 0.04 -0.08 0.04 c0 0.04 0.04 0.04 0.08 0.04 s0.04 0 0.04 -0.04 c0 0 0 -0.04 -0.04 -0.04 z M289.68399999999997 10.239999999999998 l0 0.08 c0 -0.04 0.12 0.08 0.2 -0.08 l-0.2 0 z M300.00399999999996 10.239999999999998 c-0.08 0 -0.12 0.04 -0.16 0.08 l0.16 0 l0 -0.08 z M286.924 10.239999999999998 l0.04 0 l0.96 0 l-1 0 z M346.4 40.44 c-0.08 -0.08 -0.32 -0.24 -0.4 -0.32 c0.08 0 -0.92 -0.92 -0.92 -1.36 c0 -0.16 -0.88 -1.04 -0.88 -1.44 c0 -0.36 -1.16 -0.92 -1.16 -1.72 c-0.56 -1.2 -0.96 -1.2 -1.04 -1.6 c0.04 0 0.08 0 0.08 -0.04 s-0.96 -0.72 -0.76 -1.12 c0 0 -0.04 0.04 -0.08 0.04 c-0.08 0 -0.28 -0.16 -0.88 -1.4 c0 -0.24 -0.84 -0.6 -1 -1.44 c-0.76 -0.52 -0.08 -0.84 -1.68 -2.44 c-0.52 -0.4 0.4 0.36 -1.4 -2.16 c0 -0.08 0 -0.12 0.08 -0.2 c0 -0.08 -0.08 -0.08 -0.28 -0.08 l0 -0.04 c0 -0.2 -0.6 -0.48 -0.6 -0.84 c0 -0.16 -0.36 -0.92 -1 -1.56 c-0.04 0.04 -0.04 0.08 -0.04 0.08 l0 0 s0.04 -0.04 0.04 -0.08 c0 -0.16 -0.16 -0.56 -1.04 -1.52 c0 -0.52 -0.76 -0.68 -0.96 -1.52 c0 -0.16 -1.2 -1.16 -1.24 -1.84 l0 -0.04 c0 -0.24 -0.68 -0.64 -1 -1.44 c0 -0.52 -0.84 -0.76 -0.84 -1.44 c-0.2 0 -0.32 -0.72 -1.36 -1.8 c-0.2 0.04 -0.52 0.2 -0.52 0.36 l0 1.52 c0 0.08 0.04 0.2 0.04 0.28 c0 0.04 -0.04 1.28 -0.04 1.44 c0 1.36 0.04 1.68 0.04 2.08 c0 2.12 -0.04 2.64 -0.04 3.32 c0 1.36 0.12 2.52 0.12 3.96 c0 0.04 -0.08 0.16 -0.08 0.72 l0 11.64 c0.12 0.12 0.32 0.4 0.48 0.4 l2.84 0 c0.4 0 0.92 0.24 0.92 0.8 c0 0.36 -0.28 0.44 -0.6 0.44 l-2.68 0 l-0.48 -0.16 l0.16 0 l-0.24 -0.24 l0 0.32 c-0.28 0.04 -2.64 0.12 -2.64 0.12 c-0.04 0 -0.12 0 -0.2 -0.04 c0.08 -0.04 0.16 -0.08 0.2 -0.16 c-0.32 0 -0.32 0.04 -0.44 0.16 l-0.76 0 l-0.08 -0.08 l0.08 -0.08 l-0.08 -0.08 c-0.08 0.04 -0.4 0.08 -0.4 0.16 l0.08 0.08 c-0.28 0.08 -0.44 0.04 -0.8 0.04 s-0.88 -0.04 -0.88 -0.52 c0 -0.88 1.48 -0.92 2.56 -0.92 l0.16 0.08 l1 0 l0.04 0 c0.36 0 0.36 -1.68 0.36 -2.44 c0 -6.28 -0.16 -7.76 -0.16 -20.56 c0.16 -0.48 0.16 -2.24 0.16 -3.16 c0 -0.88 -0.12 -1.48 -1.28 -1.48 c-1.32 0.08 -0.96 0.32 -1.72 0.32 c-0.56 0 -1.28 -0.2 -1.28 -0.88 c0 -0.44 0.76 -1.04 1.2 -1.04 c1.16 0 -0.12 0.4 3.12 0.4 c0.36 0 0.72 -0.12 0.92 -0.12 c0.6 0 1.2 0.12 1.76 0.12 c0.32 0 0.6 -0.04 0.76 -0.12 c0.12 0.08 0.48 0.08 0.6 0.08 l2.04 0 c0.96 0 1.88 1.96 1.92 1.96 c0.12 0 1.36 2.08 1.36 2.28 c0 0 3.24 4.84 4.12 6.16 l0 0.04 c0 0.08 0.6 0.44 0.6 0.88 l-0.04 0 l-0.04 0 c0 0.12 0.84 0.76 0.84 1.08 c1.12 1.48 0.52 1.36 1.68 2.52 l0.56 1.16 c0.04 0.12 0.92 0.92 0.92 1.36 c0.48 0.04 0.72 1.8 1.4 1.84 c0.16 0 0.4 0 0.4 -0.2 l0 -3.2 c0 -0.04 0.08 -0.28 0.08 -0.32 c0 -0.44 -0.08 -0.68 -0.08 -1.04 c0 -1.28 -0.08 -8.12 -0.08 -12.48 c-0.08 -0.36 -0.24 -0.64 -0.44 -0.8 c-1.4 0 -1.44 0.08 -1.84 0.08 c-1.32 0 -1.64 0.08 -1.64 -0.84 c0 -0.48 0.56 -0.56 1.44 -0.56 c0.68 0 1.76 0.04 3.12 0.16 c0.12 0 0.48 -0.08 0.6 -0.08 c0.16 0 0.48 0.08 0.72 0.08 c0.96 -0.08 1.88 -0.16 2.56 -0.16 c0.04 0.08 0.76 0.24 0.84 0.48 l0 0.68 c-0.04 0.16 -0.72 0.24 -0.92 0.24 c-0.44 0 -1 -0.08 -1.44 -0.08 c-1.32 0.32 -1.56 -0.36 -1.56 1.12 l0 5.96 c0 0.4 0.04 0.56 0.04 1.24 c0 0.84 0 5.8 -0.12 6 c0 -0.08 0.08 3.96 0.08 4.52 c0 1.6 -0.08 1.44 -0.08 1.72 c0 0.2 0.12 0.88 0.12 1.12 l0 -0.12 c0 0 -0.12 0.52 -0.12 3 c0 1.56 0.12 3.24 0.12 3.92 c0 0.28 -0.08 0.44 -0.56 0.96 c0 0.04 0 0.08 -0.04 0.08 s-0.12 -0.2 -0.4 -0.2 z M346.4 40.08 l0 0.04 l0.12 0 z M322.67999999999995 39.92 c0.04 0.04 0.04 0.08 0.12 0.08 c-0.04 -0.08 -0.12 -0.08 -0.12 -0.08 z M323.28 39.92 c-0.08 0 -0.12 0.04 -0.16 0.08 l0.08 0 s0.08 0 0.12 -0.08 l-0.04 0 z M324.28 39.92 l0.08 0.08 c0.08 0 0.4 -0.24 0.4 -0.64 l-0.24 0 c0 0.24 0.04 0.4 -0.24 0.56 z M325.76 39.92 c0 -0.04 -0.04 -0.04 -0.08 -0.04 c0 0 -0.04 0 -0.04 0.04 s0.04 0.08 0.04 0.08 c0.04 0 0.08 -0.04 0.08 -0.08 z M329.23999999999995 39.84 c0 0 -0.04 0.04 -0.04 0.08 s0.04 0.08 0.04 0.08 c0.04 0 0.04 -0.04 0.04 -0.08 s0 -0.08 -0.04 -0.08 z M329.76 39.84 l0 0.08 l0.08 0 l0 -0.08 l-0.08 0 z M331.32 39.84 c-0.04 0 -0.08 0.04 -0.08 0.08 s0.04 0.08 0.08 0.08 s0.04 -0.04 0.04 -0.08 s0 -0.08 -0.04 -0.08 z M324.84 39.8 c-0.04 0 -0.08 0 -0.08 0.04 l0.12 0 c0 -0.04 -0.04 -0.04 -0.04 -0.04 z M330.56 39.76 c-0.08 0 -0.12 0 -0.16 0.04 z M322.4 39.52 l0 0.08 l0 -0.12 l0 0.04 z M322.4 39.36 c0.08 0.04 0.2 0.04 0.28 0.16 c0.08 0 0.24 -0.12 0.28 -0.24 l-0.56 0 l0 0.08 z M331.44 39.28 l0 0.2 l0.08 0 c0 -0.08 0 -0.16 -0.08 -0.2 z M331.2 39.16 c-0.08 0 -0.24 0.04 -0.24 0.16 c0 0.04 0.04 0.04 0.04 0.08 c0.12 0 0.2 -0.08 0.2 -0.24 z M326.67999999999995 38.68 c0 0.08 0.04 0.16 0.12 0.16 s0.28 -0.08 0.28 -0.08 l0 -0.08 l-0.4 0 z M327.2 38.12 l0 0.24 l0.04 0 c0 -0.04 0 -0.12 -0.04 -0.24 z M326.79999999999995 36.4 c-0.12 0 -0.12 0.12 -0.12 0.12 l0.12 -0.12 l0 0 z M326.67999999999995 34.28 c-0.04 0 -0.04 0.04 -0.04 0.08 l0.08 0 c0 -0.04 0 -0.08 -0.04 -0.08 z M327.08 33.68 l0 0.04 l0.04 0 z M341.91999999999996 33.72 l-0.04 0 l0.04 0 z M326.79999999999995 32.32 l0.16 0.16 c0 -0.04 0.04 -0.08 0.04 -0.12 s-0.08 -0.12 -0.2 -0.16 c-0.2 0 -0.24 0 -0.32 0.04 c0 0.12 0.04 0.12 0.08 0.16 c0.08 -0.04 0.16 -0.08 0.24 -0.08 z M327.12 31.36 l0.08 0.08 c0.04 -0.04 0.04 -0.08 0.04 -0.16 c0 0 -0.08 0.04 -0.12 0.08 z M326.56 30.36 c-0.04 0 -0.08 0.04 -0.08 0.04 s0.04 0.04 0.08 0.04 s0.04 -0.04 0.04 -0.04 s0 -0.04 -0.04 -0.04 z M326.47999999999996 26.36 c-0.04 0 -0.08 0.04 -0.08 0.08 l0.08 0 l0.04 0 c0 -0.04 0 -0.08 -0.04 -0.08 z M326.47999999999996 26.04 l0 0.16 c0 0.04 0.04 0.04 0.04 0.04 c0.08 0 0.12 -0.2 0.12 -0.2 l-0.16 0 z M326.47999999999996 24.92 c-0.04 0 -0.08 0.04 -0.08 0.04 c0 0.04 0.04 0.04 0.08 0.04 s0.04 0 0.04 -0.04 c0 0 0 -0.04 -0.04 -0.04 z M326.47999999999996 18.6 c-0.04 0 -0.08 0.04 -0.08 0.08 s0.04 0.08 0.08 0.08 s0.04 -0.04 0.04 -0.08 s0 -0.08 -0.04 -0.08 z M326.4 18.44 c-0.04 0 -0.04 0.04 -0.04 0.08 l0.08 0 c0 -0.04 0 -0.08 -0.04 -0.08 z M347.59999999999997 10.96 c0 0 -0.04 0 -0.04 0.04 s0.04 0.08 0.04 0.08 c0.04 0 0.04 -0.04 0.04 -0.08 s0 -0.04 -0.04 -0.04 z M348.52 10.84 c0 0.12 0.12 0.12 0.16 0.12 l0.16 -0.52 c0.2 0 0.36 0.16 0.6 0.16 c0.04 0 0.08 0 0.08 -0.16 c0 -0.2 -0.32 -0.2 -0.56 -0.2 l0.04 0 s-0.52 0.24 -0.52 0.52 c0 0 0 0.04 0.04 0.08 z M350.56 10.2 l-0.04 -0.04 c0 0.08 0.24 0.64 0.24 0.8 c0.04 0 0.2 0 0.2 -0.48 c0 -0.32 -0.36 -0.24 -0.4 -0.28 z M348.03999999999996 10.84 c-0.04 0 -0.04 0.04 -0.04 0.08 c0 0 0 0.04 0.04 0.04 s0.04 -0.04 0.04 -0.04 c0 -0.04 0 -0.08 -0.04 -0.08 z M348 10.760000000000002 c-0.04 0 -0.04 0.04 -0.04 0.04 c0 0.04 0 0.04 0.04 0.04 c0 0 0.04 0 0.04 -0.04 z M324.67999999999995 10.559999999999999 c-0.04 0 -0.04 0.04 -0.04 0.04 c0 0.04 0.12 0.12 0.2 0.16 l0 -0.2 l-0.16 0 z M327 10.559999999999999 c0.04 0.04 0.08 0.16 0.08 0.16 c0.04 0 0.04 0 0.04 -0.04 l0 -0.24 l0 0 l-0.04 0 c0 0 -0.04 0.04 -0.08 0.12 z M322.4 10.36 l0 0.16 c0.08 -0.08 0.16 -0.12 0.16 -0.24 c0 -0.04 -0.08 -0.04 -0.12 -0.04 s-0.04 0.04 -0.04 0.04 l0 0.08 z M326 10.36 c0 0.08 0 0.12 0.08 0.16 c0.04 -0.04 0.08 -0.08 0.08 -0.16 l-0.16 0 z M345.56 10.36 l0 0.16 l0.04 0 z M346.56 10.280000000000001 l0 0.24 c0.12 0 0.16 -0.16 0.16 -0.24 l-0.16 0 z M346.88 10.280000000000001 c0 0.16 0.04 0.24 0.12 0.24 c0.04 0 0.04 0 0.04 -0.04 c0 -0.12 -0.08 -0.2 -0.12 -0.2 l-0.04 0 z M342.84 10.239999999999998 l-0.04 0.04 s0.16 0.16 0.28 0.16 c0 0 0.04 0 0.2 -0.16 c0 -0.04 -0.32 -0.04 -0.44 -0.04 z M349.91999999999996 10.280000000000001 c-0.12 0 -0.12 0.08 -0.12 0.2 c0.04 0 0.12 -0.12 0.2 -0.2 l-0.08 0 z M323.88 10.280000000000001 c0.04 0.08 0.04 0.12 0.08 0.12 s0.04 -0.04 0.08 -0.04 l0 -0.08 l-0.16 0 z M342.52 10.239999999999998 l0 0.04 l0.04 0 z"></path></g>
			</g>
		</svg>
	